G04 #@! TF.GenerationSoftware,KiCad,Pcbnew,(5.1.4)-1*
G04 #@! TF.CreationDate,2020-07-01T14:45:24+05:30*
G04 #@! TF.ProjectId,ClockTimer2,436c6f63-6b54-4696-9d65-72322e6b6963,rev?*
G04 #@! TF.SameCoordinates,Original*
G04 #@! TF.FileFunction,Copper,L2,Bot*
G04 #@! TF.FilePolarity,Positive*
%FSLAX46Y46*%
G04 Gerber Fmt 4.6, Leading zero omitted, Abs format (unit mm)*
G04 Created by KiCad (PCBNEW (5.1.4)-1) date 2020-07-01 14:45:24*
%MOMM*%
%LPD*%
G04 APERTURE LIST*
%ADD10R,1.700000X3.000000*%
%ADD11O,1.700000X3.000000*%
%ADD12O,1.600000X1.600000*%
%ADD13C,1.600000*%
%ADD14O,1.700000X1.700000*%
%ADD15R,1.700000X1.700000*%
%ADD16O,2.000000X2.000000*%
%ADD17C,2.000000*%
%ADD18O,1.800000X2.500000*%
%ADD19C,3.000000*%
%ADD20R,3.000000X3.000000*%
%ADD21O,1.200000X2.500000*%
%ADD22C,2.300000*%
%ADD23R,2.300000X2.000000*%
%ADD24C,1.800000*%
%ADD25R,1.800000X1.800000*%
%ADD26R,1.600000X1.600000*%
%ADD27C,1.000000*%
%ADD28C,1.000000*%
%ADD29C,0.750000*%
%ADD30C,0.500000*%
G04 APERTURE END LIST*
D10*
X104155551Y-86862460D03*
D11*
X106695551Y-86862460D03*
X109235551Y-86862460D03*
X111775551Y-86862460D03*
X114315551Y-86862460D03*
X116855551Y-86862460D03*
X119395551Y-86862460D03*
X121935551Y-86862460D03*
X121920871Y-74115418D03*
X119380871Y-74115418D03*
X116840871Y-74115418D03*
X114300871Y-74115418D03*
X111760871Y-74115418D03*
X109220871Y-74115418D03*
X106680871Y-74115418D03*
D10*
X104140871Y-74115418D03*
D12*
X113050000Y-109360000D03*
D13*
X113050000Y-99200000D03*
D12*
X117100000Y-109360000D03*
D13*
X117100000Y-99200000D03*
D14*
X121917827Y-69080705D03*
X119377827Y-69080705D03*
X116837827Y-69080705D03*
X114297827Y-69080705D03*
X111757827Y-69080705D03*
X109217827Y-69080705D03*
X106677827Y-69080705D03*
D15*
X104137827Y-69080705D03*
D14*
X121920000Y-92075000D03*
X119380000Y-92075000D03*
X116840000Y-92075000D03*
X114300000Y-92075000D03*
X111760000Y-92075000D03*
X109220000Y-92075000D03*
X106680000Y-92075000D03*
D15*
X104140000Y-92075000D03*
D16*
X108585000Y-100330000D03*
X106045000Y-100330000D03*
X103505000Y-100330000D03*
X100965000Y-100330000D03*
D13*
X144780000Y-33655000D03*
D12*
X154940000Y-33655000D03*
X146050000Y-83820000D03*
D13*
X146050000Y-93980000D03*
D12*
X162560000Y-126365000D03*
D13*
X152400000Y-126365000D03*
D12*
X162560000Y-122555000D03*
D13*
X152400000Y-122555000D03*
D12*
X122555000Y-124460000D03*
D13*
X132715000Y-124460000D03*
D12*
X163830000Y-100965000D03*
D13*
X163830000Y-111125000D03*
D12*
X180975000Y-100965000D03*
D13*
X170815000Y-100965000D03*
D12*
X180975000Y-104140000D03*
D13*
X170815000Y-104140000D03*
D12*
X167005000Y-100965000D03*
D13*
X167005000Y-111125000D03*
D17*
X108735000Y-111760000D03*
X108735000Y-107260000D03*
X102235000Y-111760000D03*
X102235000Y-107260000D03*
X137548018Y-118703639D03*
X142048018Y-118703639D03*
X137548018Y-112203639D03*
X142048018Y-112203639D03*
X170815000Y-107260000D03*
X170815000Y-111760000D03*
X177315000Y-107260000D03*
X177315000Y-111760000D03*
D18*
X183515000Y-95645000D03*
X183515000Y-65645000D03*
X180975000Y-95645000D03*
X180975000Y-65645000D03*
X178435000Y-95645000D03*
X178435000Y-65645000D03*
X175895000Y-95645000D03*
X175895000Y-65645000D03*
X173355000Y-95645000D03*
X173355000Y-65645000D03*
D19*
X102870000Y-55245000D03*
D20*
X102870000Y-50165000D03*
D19*
X133350000Y-37465000D03*
D20*
X138430000Y-37465000D03*
D18*
X163219479Y-39180225D03*
X163219479Y-58180225D03*
X160679479Y-39180225D03*
X160679479Y-58180225D03*
X158139479Y-39180225D03*
X158139479Y-58180225D03*
X155599479Y-39180225D03*
X155599479Y-58180225D03*
X153059479Y-39180225D03*
X153059479Y-58180225D03*
X150519479Y-39180225D03*
X150519479Y-58180225D03*
X147979479Y-39180225D03*
X147979479Y-58180225D03*
X145439479Y-39180225D03*
X145439479Y-58180225D03*
X159385000Y-95645000D03*
X159385000Y-65645000D03*
X156845000Y-95645000D03*
X156845000Y-65645000D03*
X154305000Y-95645000D03*
X154305000Y-65645000D03*
X151765000Y-95645000D03*
X151765000Y-65645000D03*
X149225000Y-95645000D03*
X149225000Y-65645000D03*
X130175000Y-95645000D03*
X130175000Y-65645000D03*
X127635000Y-95645000D03*
X127635000Y-65645000D03*
X125095000Y-95645000D03*
X125095000Y-65645000D03*
X122555000Y-95645000D03*
X122555000Y-65645000D03*
X120015000Y-95645000D03*
X120015000Y-65645000D03*
D21*
X106045000Y-95645000D03*
D18*
X106045000Y-65645000D03*
D21*
X103505000Y-95645000D03*
D18*
X103505000Y-65645000D03*
D21*
X100965000Y-95645000D03*
D18*
X100965000Y-65645000D03*
D21*
X98425000Y-95645000D03*
D18*
X98425000Y-65645000D03*
X95885000Y-95645000D03*
X95885000Y-65645000D03*
D17*
X174775000Y-55245000D03*
X174775000Y-59745000D03*
X168275000Y-55245000D03*
X168275000Y-59745000D03*
X174775000Y-44450000D03*
X174775000Y-48950000D03*
X168275000Y-44450000D03*
X168275000Y-48950000D03*
D22*
X138620000Y-59730000D03*
X109220000Y-54530000D03*
D23*
X109220000Y-49530000D03*
D22*
X138620000Y-44330000D03*
D24*
X140970000Y-86995000D03*
D25*
X140970000Y-89535000D03*
D24*
X138430000Y-71755000D03*
D25*
X138430000Y-74295000D03*
D12*
X158115000Y-100330000D03*
X158115000Y-115570000D03*
X122555000Y-100330000D03*
X155575000Y-115570000D03*
X125095000Y-100330000D03*
X153035000Y-115570000D03*
X127635000Y-100330000D03*
X150495000Y-115570000D03*
X130175000Y-100330000D03*
X147955000Y-115570000D03*
X132715000Y-100330000D03*
X145415000Y-115570000D03*
X135255000Y-100330000D03*
X142875000Y-115570000D03*
X137795000Y-100330000D03*
X140335000Y-115570000D03*
X140335000Y-100330000D03*
X137795000Y-115570000D03*
X142875000Y-100330000D03*
X135255000Y-115570000D03*
X145415000Y-100330000D03*
X132715000Y-115570000D03*
X147955000Y-100330000D03*
X130175000Y-115570000D03*
X150495000Y-100330000D03*
X127635000Y-115570000D03*
X153035000Y-100330000D03*
X125095000Y-115570000D03*
X155575000Y-100330000D03*
D26*
X122555000Y-115570000D03*
D27*
X91440000Y-76835000D03*
X165100000Y-96520000D03*
X135931450Y-91840115D03*
D28*
X158115000Y-128905000D02*
X158115000Y-115570000D01*
X159385000Y-130175000D02*
X158115000Y-128905000D01*
X171046797Y-50530455D02*
X172720000Y-52203658D01*
X171046797Y-42141797D02*
X171046797Y-50530455D01*
X178426980Y-52203658D02*
X188218430Y-63241570D01*
X165100000Y-36830000D02*
X171046797Y-42141797D01*
X172720000Y-52203658D02*
X178426980Y-52203658D01*
X191313202Y-75108202D02*
X191313202Y-95706798D01*
X188218430Y-63241570D02*
X188880749Y-65055749D01*
X188880749Y-65055749D02*
X188880749Y-72675749D01*
X188880749Y-72675749D02*
X191313202Y-75108202D01*
X191313202Y-95706798D02*
X188743167Y-102383167D01*
X188743167Y-102383167D02*
X182880000Y-113030000D01*
X182880000Y-113030000D02*
X175260000Y-121285000D01*
X175260000Y-121285000D02*
X167640000Y-127000000D01*
X167640000Y-127000000D02*
X163195000Y-129540000D01*
X163195000Y-129540000D02*
X159385000Y-130175000D01*
X161514117Y-35335883D02*
X165100000Y-36830000D01*
X156900702Y-33710702D02*
X154940000Y-33655000D01*
X161514117Y-35335883D02*
X156900702Y-33710702D01*
D29*
X160710000Y-49585000D02*
X160655000Y-49530000D01*
D28*
X160677467Y-49617533D02*
X160677467Y-58174945D01*
D29*
X160710000Y-49585000D02*
X160677467Y-49617533D01*
X160655000Y-39197412D02*
X160677467Y-39174945D01*
D28*
X160655000Y-49530000D02*
X160655000Y-39197412D01*
D29*
X160655000Y-44330000D02*
X160655000Y-49530000D01*
D28*
X138620000Y-44330000D02*
X160655000Y-44330000D01*
X108735000Y-107260000D02*
X102235000Y-107260000D01*
D29*
X138620000Y-44330000D02*
X138550000Y-44330000D01*
D28*
X100965000Y-100330000D02*
X100965000Y-107315000D01*
X93345000Y-60960000D02*
X95250000Y-59055000D01*
X95250000Y-59055000D02*
X123895000Y-59055000D01*
X90170000Y-69215000D02*
X93345000Y-60960000D01*
X98370000Y-107260000D02*
X90804999Y-99694999D01*
X102235000Y-107260000D02*
X98370000Y-107260000D01*
X90804999Y-99694999D02*
X89746666Y-97578334D01*
X89746666Y-97578334D02*
X88265000Y-91440000D01*
X88265000Y-91440000D02*
X88265000Y-80010000D01*
X123895000Y-59055000D02*
X138620000Y-44330000D01*
X88265000Y-80010000D02*
X90170000Y-69215000D01*
D29*
X142048018Y-120841982D02*
X142048018Y-118703639D01*
X141225843Y-121664157D02*
X142048018Y-120841982D01*
X122299157Y-121664157D02*
X141225843Y-121664157D01*
X108735000Y-107260000D02*
X108735000Y-108100000D01*
X108735000Y-108100000D02*
X122299157Y-121664157D01*
D28*
X170815000Y-100965000D02*
X165100000Y-106045000D01*
X165100000Y-106045000D02*
X161290000Y-106045000D01*
X161290000Y-106045000D02*
X153035000Y-113030000D01*
X153035000Y-113030000D02*
X153035000Y-115570000D01*
X139930000Y-58420000D02*
X138620000Y-59730000D01*
X145439479Y-58180225D02*
X145199704Y-58420000D01*
X145199704Y-58420000D02*
X139930000Y-58420000D01*
D29*
X91440000Y-83185000D02*
X91715331Y-96879669D01*
X91440000Y-76835000D02*
X91440000Y-83185000D01*
D30*
X104140000Y-92075000D02*
X100965000Y-92075000D01*
X100965000Y-92075000D02*
X99695000Y-93345000D01*
X99695000Y-93345000D02*
X99711839Y-98665287D01*
D29*
X98510248Y-98657252D02*
X99711839Y-98665287D01*
X91715331Y-96879669D02*
X93492914Y-98657252D01*
X93492914Y-98657252D02*
X98510248Y-98657252D01*
D30*
X130175000Y-100965000D02*
X130175000Y-100330000D01*
X109865287Y-98665287D02*
X112200000Y-101000000D01*
X99711839Y-98665287D02*
X109865287Y-98665287D01*
X112200000Y-101000000D02*
X114600000Y-101000000D01*
X114600000Y-101000000D02*
X116340070Y-102740070D01*
X116340070Y-102740070D02*
X128399930Y-102740070D01*
X128399930Y-102740070D02*
X130175000Y-100965000D01*
D28*
X135255000Y-71755000D02*
X138430000Y-71755000D01*
X126710000Y-80300000D02*
X135255000Y-71755000D01*
X91440000Y-76835000D02*
X94905000Y-80300000D01*
X94905000Y-80300000D02*
X126710000Y-80300000D01*
D29*
X151765000Y-122555000D02*
X152400000Y-122555000D01*
X145415000Y-115570000D02*
X145415000Y-116205000D01*
X145415000Y-116205000D02*
X151765000Y-122555000D01*
X142875000Y-115570000D02*
X142875000Y-116205000D01*
X152400000Y-126365000D02*
X150495000Y-126365000D01*
X150495000Y-126365000D02*
X145415000Y-121285000D01*
X145415000Y-121285000D02*
X145415000Y-118745000D01*
X142875000Y-116205000D02*
X145415000Y-118745000D01*
X137795000Y-100647500D02*
X137795000Y-100330000D01*
X134088268Y-104354232D02*
X137795000Y-100647500D01*
X115154232Y-104354232D02*
X134088268Y-104354232D01*
X113100000Y-102300000D02*
X115154232Y-104354232D01*
X108585000Y-100330000D02*
X110555000Y-102300000D01*
X110555000Y-102300000D02*
X113100000Y-102300000D01*
D28*
X139700000Y-114935000D02*
X140335000Y-115570000D01*
X160655000Y-100965000D02*
X160655000Y-102126554D01*
X165100000Y-96520000D02*
X160655000Y-100965000D01*
X160655000Y-102126554D02*
X156101554Y-106680000D01*
X156101554Y-106680000D02*
X142875000Y-106680000D01*
X142875000Y-106680000D02*
X139700000Y-109855000D01*
X139700000Y-109855000D02*
X139700000Y-114935000D01*
D29*
X140335000Y-101600000D02*
X140335000Y-100330000D01*
X106045000Y-101761910D02*
X107983090Y-103700000D01*
X106045000Y-100330000D02*
X106045000Y-101761910D01*
X107983090Y-103700000D02*
X111600000Y-103700000D01*
X111600000Y-103700000D02*
X113706979Y-105806979D01*
X113706979Y-105806979D02*
X136128021Y-105806979D01*
X136128021Y-105806979D02*
X140335000Y-101600000D01*
D28*
X108735000Y-111760000D02*
X102235000Y-111760000D01*
X135931450Y-91840115D02*
X135923797Y-91847768D01*
X125095000Y-94505000D02*
X125095000Y-95645000D01*
X135923797Y-91847768D02*
X127752232Y-91847768D01*
X127752232Y-91847768D02*
X125095000Y-94505000D01*
D30*
X137548018Y-112203639D02*
X136525000Y-113665000D01*
X136525000Y-113665000D02*
X136525000Y-116840000D01*
X136525000Y-116840000D02*
X137548018Y-118703639D01*
D28*
X170815000Y-107260000D02*
X177315000Y-107260000D01*
X120790000Y-109360000D02*
X117100000Y-109360000D01*
X125095000Y-115570000D02*
X125095000Y-113665000D01*
X125095000Y-113665000D02*
X120790000Y-109360000D01*
D29*
X155575000Y-101600000D02*
X155575000Y-100330000D01*
X153632082Y-103542918D02*
X155575000Y-101600000D01*
X142045878Y-103542918D02*
X153632082Y-103542918D01*
X103505000Y-102961294D02*
X105643706Y-105100000D01*
X103505000Y-100330000D02*
X103505000Y-102961294D01*
X110300000Y-105100000D02*
X112515000Y-107315000D01*
X112515000Y-107315000D02*
X138273796Y-107315000D01*
X105643706Y-105100000D02*
X110300000Y-105100000D01*
X138273796Y-107315000D02*
X142045878Y-103542918D01*
D28*
X113360000Y-109360000D02*
X113050000Y-109360000D01*
X116600000Y-112600000D02*
X113360000Y-109360000D01*
X122555000Y-115570000D02*
X119585000Y-112600000D01*
X119585000Y-112600000D02*
X116600000Y-112600000D01*
X140970000Y-86995000D02*
X140970000Y-76678185D01*
X138430000Y-74295000D02*
X140970000Y-76678185D01*
X103585000Y-54530000D02*
X109220000Y-54530000D01*
X102870000Y-55245000D02*
X103585000Y-54530000D01*
X103505000Y-49530000D02*
X102870000Y-50165000D01*
X109220000Y-49530000D02*
X103505000Y-49530000D01*
X166370000Y-55245000D02*
X174775000Y-55245000D01*
X164465000Y-53340000D02*
X166370000Y-55245000D01*
X163219479Y-39180225D02*
X164465000Y-40425746D01*
X164465000Y-40425746D02*
X164465000Y-53340000D01*
X159385000Y-65645000D02*
X159385000Y-67945000D01*
X183515000Y-65645000D02*
X183515000Y-67310000D01*
X130175000Y-67310000D02*
X130175000Y-65645000D01*
X158750000Y-68580000D02*
X159385000Y-67945000D01*
X130175000Y-67310000D02*
X131445000Y-68580000D01*
X131445000Y-68580000D02*
X158750000Y-68580000D01*
X183515000Y-67310000D02*
X177165000Y-73660000D01*
X165100000Y-73660000D02*
X177165000Y-73660000D01*
X159385000Y-67945000D02*
X165100000Y-73660000D01*
X180975000Y-104140000D02*
X182245000Y-104140000D01*
X182245000Y-104140000D02*
X183515000Y-102870000D01*
X186055000Y-82550000D02*
X186009643Y-98379643D01*
X186009643Y-98379643D02*
X183515000Y-102870000D01*
X186055000Y-82550000D02*
X177165000Y-73660000D01*
D30*
X104190000Y-67500000D02*
X102200000Y-67500000D01*
X106045000Y-65645000D02*
X104190000Y-67500000D01*
X102200000Y-67500000D02*
X99900000Y-69800000D01*
D28*
X130175000Y-72625000D02*
X130175000Y-65645000D01*
X125100000Y-77700000D02*
X130175000Y-72625000D01*
X101200000Y-77700000D02*
X125100000Y-77700000D01*
X99900000Y-69800000D02*
X99900000Y-76400000D01*
X99900000Y-76400000D02*
X101200000Y-77700000D01*
X183515000Y-95645000D02*
X180975000Y-100965000D01*
X174625000Y-100965000D02*
X180975000Y-100965000D01*
X167005000Y-93345000D02*
X174625000Y-100965000D01*
X159385000Y-95645000D02*
X161685000Y-93345000D01*
X161685000Y-93345000D02*
X167005000Y-93345000D01*
X139305000Y-95645000D02*
X130175000Y-95645000D01*
X155575000Y-79375000D02*
X139305000Y-95645000D01*
X176530000Y-79375000D02*
X155575000Y-79375000D01*
X183515000Y-95645000D02*
X183515000Y-86360000D01*
X183515000Y-86360000D02*
X176530000Y-79375000D01*
D30*
X156845000Y-96045000D02*
X156845000Y-95645000D01*
X156845000Y-97155000D02*
X156845000Y-95645000D01*
X155750795Y-98249205D02*
X156845000Y-97155000D01*
X128649205Y-98249205D02*
X155750795Y-98249205D01*
X127635000Y-95645000D02*
X127635000Y-97235000D01*
X127635000Y-97235000D02*
X128649205Y-98249205D01*
X109600000Y-96000000D02*
X115600000Y-96000000D01*
X109000000Y-96000000D02*
X109600000Y-96000000D01*
X107275010Y-97724990D02*
X109000000Y-96000000D01*
X103505000Y-95645000D02*
X104140000Y-97724990D01*
X104140000Y-97724990D02*
X107275010Y-97724990D01*
X117000000Y-96000000D02*
X109600000Y-96000000D01*
X119300000Y-98300000D02*
X117000000Y-96000000D01*
X119259943Y-98259943D02*
X119200000Y-98200000D01*
X127635000Y-97235000D02*
X126790058Y-98259943D01*
X126790058Y-98259943D02*
X119259943Y-98259943D01*
X151765000Y-95245000D02*
X151765000Y-95645000D01*
D28*
X175895000Y-95645000D02*
X175895000Y-93345000D01*
X175895000Y-93345000D02*
X171450000Y-88265000D01*
X171450000Y-88265000D02*
X156210000Y-88265000D01*
X156210000Y-88265000D02*
X151765000Y-92710000D01*
X151765000Y-92710000D02*
X151765000Y-95645000D01*
D30*
X122555000Y-95645000D02*
X122555000Y-94745000D01*
D29*
X98425000Y-85575000D02*
X98425000Y-95645000D01*
X122555000Y-94445000D02*
X126365000Y-90635000D01*
X122555000Y-94745000D02*
X122555000Y-94445000D01*
X126365000Y-90635000D02*
X126365000Y-84065000D01*
X126365000Y-84065000D02*
X125000000Y-82700000D01*
X125000000Y-82700000D02*
X101300000Y-82700000D01*
X101300000Y-82700000D02*
X98425000Y-85575000D01*
D28*
X173355000Y-62865000D02*
X166370000Y-62865000D01*
X173355000Y-65645000D02*
X173355000Y-62865000D01*
X120015000Y-63085910D02*
X120015000Y-63500000D01*
X120015000Y-62865000D02*
X120015000Y-63085910D01*
X184785000Y-62865000D02*
X186690000Y-64770000D01*
X170815000Y-62865000D02*
X184785000Y-62865000D01*
X186690000Y-64770000D02*
X186690000Y-75565000D01*
X120015000Y-62230000D02*
X120015000Y-65645000D01*
X97155000Y-62230000D02*
X120015000Y-62230000D01*
X95885000Y-65645000D02*
X95885000Y-63500000D01*
X95885000Y-63500000D02*
X97155000Y-62230000D01*
X149225000Y-64135000D02*
X149225000Y-65645000D01*
X151765000Y-61595000D02*
X149225000Y-64135000D01*
X166370000Y-62865000D02*
X165100000Y-61595000D01*
X165100000Y-61595000D02*
X151765000Y-61595000D01*
X133985000Y-62230000D02*
X120015000Y-62230000D01*
X149225000Y-65645000D02*
X137400000Y-65645000D01*
X137400000Y-65645000D02*
X133985000Y-62230000D01*
X186690000Y-75565000D02*
X188595000Y-77470000D01*
D29*
X188250656Y-98134344D02*
X185996612Y-103446612D01*
X188250656Y-98134344D02*
X188595000Y-77470000D01*
X185750890Y-103809110D02*
X181610000Y-111125000D01*
X185996612Y-103446612D02*
X185750890Y-103809110D01*
X181610000Y-111125000D02*
X176530000Y-116840000D01*
X176530000Y-116840000D02*
X172085000Y-121285000D01*
X172085000Y-121285000D02*
X170180000Y-122555000D01*
X170180000Y-122555000D02*
X162560000Y-122555000D01*
D30*
X155599479Y-39180225D02*
X155575000Y-39155746D01*
D28*
X146929256Y-35804256D02*
X144780000Y-33655000D01*
X153914256Y-35804256D02*
X146929256Y-35804256D01*
X155599479Y-39180225D02*
X155575000Y-37465000D01*
X155575000Y-37465000D02*
X153914256Y-35804256D01*
M02*
