M48
; DRILL file {KiCad (5.1.4)-1} date 7/1/2020 2:46:22 PM
; FORMAT={-:-/ absolute / inch / decimal}
; #@! TF.CreationDate,2020-07-01T14:46:22+05:30
; #@! TF.GenerationSoftware,Kicad,Pcbnew,(5.1.4)-1
FMAT,2
INCH
T1C0.0236
T2C0.0315
T3C0.0354
T4C0.0394
T5C0.0433
T6C0.0598
T7C0.1260
%
G90
G05
T1
X3.6Y-3.025
X5.3516Y-3.6158
X6.5Y-3.8
T2
X3.975Y-3.95
X4.075Y-3.95
X4.175Y-3.95
X4.275Y-3.95
X6.0Y-4.825
X6.4Y-4.825
X4.725Y-2.5844
X4.725Y-3.7656
X4.825Y-2.5844
X4.825Y-3.7656
X4.925Y-2.5844
X4.925Y-3.7656
X5.025Y-2.5844
X5.025Y-3.7656
X5.125Y-2.5844
X5.125Y-3.7656
X6.725Y-4.1
X7.125Y-4.1
X6.45Y-3.975
X6.45Y-4.375
X5.726Y-1.5425
X5.726Y-2.2906
X5.826Y-1.5425
X5.826Y-2.2906
X5.926Y-1.5425
X5.926Y-2.2906
X6.026Y-1.5425
X6.026Y-2.2906
X6.126Y-1.5425
X6.126Y-2.2906
X6.226Y-1.5425
X6.226Y-2.2906
X6.326Y-1.5425
X6.326Y-2.2906
X6.426Y-1.5425
X6.426Y-2.2906
X4.4508Y-3.9055
X4.4508Y-4.3055
X4.825Y-3.95
X4.825Y-4.55
X4.925Y-3.95
X4.925Y-4.55
X5.025Y-3.95
X5.025Y-4.55
X5.125Y-3.95
X5.125Y-4.55
X5.225Y-3.95
X5.225Y-4.55
X5.325Y-3.95
X5.325Y-4.55
X5.425Y-3.95
X5.425Y-4.55
X5.525Y-3.95
X5.525Y-4.55
X5.625Y-3.95
X5.625Y-4.55
X5.725Y-3.95
X5.725Y-4.55
X5.825Y-3.95
X5.825Y-4.55
X5.925Y-3.95
X5.925Y-4.55
X6.025Y-3.95
X6.025Y-4.55
X6.125Y-3.95
X6.125Y-4.55
X6.225Y-3.95
X6.225Y-4.55
X4.825Y-4.9
X5.225Y-4.9
X6.575Y-3.975
X6.575Y-4.375
X5.875Y-2.5844
X5.875Y-3.7656
X5.975Y-2.5844
X5.975Y-3.7656
X6.075Y-2.5844
X6.075Y-3.7656
X6.175Y-2.5844
X6.175Y-3.7656
X6.275Y-2.5844
X6.275Y-3.7656
X4.6102Y-3.9055
X4.6102Y-4.3055
X5.75Y-3.3
X5.75Y-3.7
X5.7Y-1.325
X6.1Y-1.325
X6.0Y-4.975
X6.4Y-4.975
X3.775Y-2.5844
X3.775Y-3.7656
X3.875Y-2.5844
X3.875Y-3.7656
X3.975Y-2.5844
X3.975Y-3.7656
X4.075Y-2.5844
X4.075Y-3.7656
X4.175Y-2.5844
X4.175Y-3.7656
X6.725Y-3.975
X7.125Y-3.975
X6.825Y-2.5844
X6.825Y-3.7656
X6.925Y-2.5844
X6.925Y-3.7656
X7.025Y-2.5844
X7.025Y-3.7656
X7.125Y-2.5844
X7.125Y-3.7656
X7.225Y-2.5844
X7.225Y-3.7656
T3
X5.45Y-2.825
X5.45Y-2.925
X5.55Y-3.425
X5.55Y-3.525
T4
X4.0999Y-2.7197
X4.1999Y-2.7197
X4.2999Y-2.7197
X4.3999Y-2.7197
X4.4999Y-2.7197
X4.5999Y-2.7197
X4.6999Y-2.7197
X4.7999Y-2.7197
X4.1Y-2.9179
X4.2Y-2.9179
X4.3Y-2.9179
X4.4Y-2.9179
X4.5Y-2.9179
X4.6Y-2.9179
X4.7Y-2.9179
X4.8Y-2.9179
X4.1006Y-3.4198
X4.2006Y-3.4198
X4.3006Y-3.4198
X4.4006Y-3.4198
X4.5006Y-3.4198
X4.6006Y-3.4198
X4.7006Y-3.4198
X4.8006Y-3.4198
X4.3Y-1.95
X4.3Y-2.1469
X5.4575Y-1.7453
X5.4575Y-2.3516
X4.1Y-3.625
X4.2Y-3.625
X4.3Y-3.625
X4.4Y-3.625
X4.5Y-3.625
X4.6Y-3.625
X4.7Y-3.625
X4.8Y-3.625
T5
X5.4153Y-4.4175
X5.4153Y-4.6734
X5.5924Y-4.4175
X5.5924Y-4.6734
X6.625Y-2.175
X6.625Y-2.3522
X6.8809Y-2.175
X6.8809Y-2.3522
X6.625Y-1.75
X6.625Y-1.9272
X6.8809Y-1.75
X6.8809Y-1.9272
X6.725Y-4.2228
X6.725Y-4.4
X6.9809Y-4.2228
X6.9809Y-4.4
X4.025Y-4.2228
X4.025Y-4.4
X4.2809Y-4.2228
X4.2809Y-4.4
T6
X5.25Y-1.475
X5.45Y-1.475
X4.05Y-1.975
X4.05Y-2.175
T7
X6.625Y-4.625
X4.75Y-1.5
X4.425Y-4.625
X5.975Y-1.975
T0
M30
