G04 #@! TF.GenerationSoftware,KiCad,Pcbnew,(5.1.4)-1*
G04 #@! TF.CreationDate,2020-07-01T14:45:24+05:30*
G04 #@! TF.ProjectId,ClockTimer2,436c6f63-6b54-4696-9d65-72322e6b6963,rev?*
G04 #@! TF.SameCoordinates,Original*
G04 #@! TF.FileFunction,Legend,Top*
G04 #@! TF.FilePolarity,Positive*
%FSLAX46Y46*%
G04 Gerber Fmt 4.6, Leading zero omitted, Abs format (unit mm)*
G04 Created by KiCad (PCBNEW (5.1.4)-1) date 2020-07-01 14:45:24*
%MOMM*%
%LPD*%
G04 APERTURE LIST*
%ADD10C,0.120000*%
%ADD11C,0.150000*%
%ADD12C,0.250000*%
G04 APERTURE END LIST*
D10*
X143418677Y-88281323D02*
G75*
G03X143418677Y-88281323I-2418677J0D01*
G01*
X140818677Y-72981323D02*
G75*
G03X140818677Y-72981323I-2418677J0D01*
G01*
D11*
X140004761Y-88533333D02*
X142004761Y-87866666D01*
X140004761Y-87866666D02*
X142004761Y-88533333D01*
X137404761Y-73333333D02*
X139404761Y-72666666D01*
X137404761Y-72666666D02*
X139404761Y-73333333D01*
D10*
X102810000Y-93405000D02*
X102810000Y-67800000D01*
X123200000Y-93405000D02*
X102810000Y-93405000D01*
X123200000Y-67800000D02*
X123200000Y-93405000D01*
X102800000Y-67800000D02*
X123200000Y-67800000D01*
D11*
X172966666Y-107609523D02*
X175633333Y-111609523D01*
X175633333Y-107609523D02*
X172966666Y-111609523D01*
X137766666Y-113509523D02*
X140433333Y-117509523D01*
X140433333Y-113509523D02*
X137766666Y-117509523D01*
X104266666Y-107709523D02*
X106933333Y-111709523D01*
X106933333Y-107709523D02*
X104266666Y-111709523D01*
X176933333Y-78361904D02*
X180266666Y-83361904D01*
X180266666Y-78361904D02*
X176933333Y-83361904D01*
X152433333Y-78061904D02*
X155766666Y-83061904D01*
X155766666Y-78061904D02*
X152433333Y-83061904D01*
X123433333Y-78261904D02*
X126766666Y-83261904D01*
X126766666Y-78261904D02*
X123433333Y-83261904D01*
X99633333Y-78061904D02*
X102966666Y-83061904D01*
X102966666Y-78061904D02*
X99633333Y-83061904D01*
X137314285Y-69671428D02*
X138076190Y-69671428D01*
X137695238Y-70052380D02*
X137695238Y-69290476D01*
X139028571Y-69052380D02*
X138552380Y-69052380D01*
X138504761Y-69528571D01*
X138552380Y-69480952D01*
X138647619Y-69433333D01*
X138885714Y-69433333D01*
X138980952Y-69480952D01*
X139028571Y-69528571D01*
X139076190Y-69623809D01*
X139076190Y-69861904D01*
X139028571Y-69957142D01*
X138980952Y-70004761D01*
X138885714Y-70052380D01*
X138647619Y-70052380D01*
X138552380Y-70004761D01*
X138504761Y-69957142D01*
X139361904Y-69052380D02*
X139695238Y-70052380D01*
X140028571Y-69052380D01*
X109528571Y-89152380D02*
X109885714Y-90152380D01*
X110171428Y-89438095D01*
X110457142Y-90152380D01*
X110814285Y-89152380D01*
X111957142Y-90104761D02*
X111814285Y-90152380D01*
X111528571Y-90152380D01*
X111385714Y-90104761D01*
X111314285Y-90009523D01*
X111314285Y-89628571D01*
X111385714Y-89533333D01*
X111528571Y-89485714D01*
X111814285Y-89485714D01*
X111957142Y-89533333D01*
X112028571Y-89628571D01*
X112028571Y-89723809D01*
X111314285Y-89819047D01*
X112671428Y-90152380D02*
X112671428Y-89485714D01*
X112671428Y-89580952D02*
X112742857Y-89533333D01*
X112885714Y-89485714D01*
X113100000Y-89485714D01*
X113242857Y-89533333D01*
X113314285Y-89628571D01*
X113314285Y-90152380D01*
X113314285Y-89628571D02*
X113385714Y-89533333D01*
X113528571Y-89485714D01*
X113742857Y-89485714D01*
X113885714Y-89533333D01*
X113957142Y-89628571D01*
X113957142Y-90152380D01*
X114885714Y-90152380D02*
X114742857Y-90104761D01*
X114671428Y-90057142D01*
X114600000Y-89961904D01*
X114600000Y-89676190D01*
X114671428Y-89580952D01*
X114742857Y-89533333D01*
X114885714Y-89485714D01*
X115100000Y-89485714D01*
X115242857Y-89533333D01*
X115314285Y-89580952D01*
X115385714Y-89676190D01*
X115385714Y-89961904D01*
X115314285Y-90057142D01*
X115242857Y-90104761D01*
X115100000Y-90152380D01*
X114885714Y-90152380D01*
X115957142Y-90104761D02*
X116100000Y-90152380D01*
X116385714Y-90152380D01*
X116528571Y-90104761D01*
X116600000Y-90009523D01*
X116600000Y-89961904D01*
X116528571Y-89866666D01*
X116385714Y-89819047D01*
X116171428Y-89819047D01*
X116028571Y-89771428D01*
X115957142Y-89676190D01*
X115957142Y-89628571D01*
X116028571Y-89533333D01*
X116171428Y-89485714D01*
X116385714Y-89485714D01*
X116528571Y-89533333D01*
X119952380Y-89995238D02*
X119476190Y-90328571D01*
X119952380Y-90566666D02*
X118952380Y-90566666D01*
X118952380Y-90185714D01*
X119000000Y-90090476D01*
X119047619Y-90042857D01*
X119142857Y-89995238D01*
X119285714Y-89995238D01*
X119380952Y-90042857D01*
X119428571Y-90090476D01*
X119476190Y-90185714D01*
X119476190Y-90566666D01*
X119952380Y-89661904D02*
X119285714Y-89138095D01*
X119285714Y-89661904D02*
X119952380Y-89138095D01*
X121552380Y-90590476D02*
X121552380Y-90019047D01*
X122552380Y-90304761D02*
X121552380Y-90304761D01*
X122552380Y-89780952D02*
X121885714Y-89257142D01*
X121885714Y-89780952D02*
X122552380Y-89257142D01*
X106200000Y-90133333D02*
X106152380Y-90200000D01*
X106152380Y-90300000D01*
X106200000Y-90400000D01*
X106295238Y-90466666D01*
X106390476Y-90500000D01*
X106580952Y-90533333D01*
X106723809Y-90533333D01*
X106914285Y-90500000D01*
X107009523Y-90466666D01*
X107104761Y-90400000D01*
X107152380Y-90300000D01*
X107152380Y-90233333D01*
X107104761Y-90133333D01*
X107057142Y-90100000D01*
X106723809Y-90100000D01*
X106723809Y-90233333D01*
X107152380Y-89800000D02*
X106152380Y-89800000D01*
X107152380Y-89400000D01*
X106152380Y-89400000D01*
X107152380Y-89066666D02*
X106152380Y-89066666D01*
X106152380Y-88900000D01*
X106200000Y-88800000D01*
X106295238Y-88733333D01*
X106390476Y-88700000D01*
X106580952Y-88666666D01*
X106723809Y-88666666D01*
X106914285Y-88700000D01*
X107009523Y-88733333D01*
X107104761Y-88800000D01*
X107152380Y-88900000D01*
X107152380Y-89066666D01*
X103552380Y-89990476D02*
X103552380Y-90466666D01*
X104028571Y-90514285D01*
X103980952Y-90466666D01*
X103933333Y-90371428D01*
X103933333Y-90133333D01*
X103980952Y-90038095D01*
X104028571Y-89990476D01*
X104123809Y-89942857D01*
X104361904Y-89942857D01*
X104457142Y-89990476D01*
X104504761Y-90038095D01*
X104552380Y-90133333D01*
X104552380Y-90371428D01*
X104504761Y-90466666D01*
X104457142Y-90514285D01*
X103552380Y-89657142D02*
X104552380Y-89323809D01*
X103552380Y-88990476D01*
X143129047Y-120721428D02*
X143890952Y-120721428D01*
X143041666Y-98925000D02*
X143041666Y-98591666D01*
X143327380Y-98991666D02*
X142327380Y-98758333D01*
X143327380Y-98525000D01*
X142327380Y-98358333D02*
X142327380Y-97925000D01*
X142708333Y-98158333D01*
X142708333Y-98058333D01*
X142755952Y-97991666D01*
X142803571Y-97958333D01*
X142898809Y-97925000D01*
X143136904Y-97925000D01*
X143232142Y-97958333D01*
X143279761Y-97991666D01*
X143327380Y-98058333D01*
X143327380Y-98258333D01*
X143279761Y-98325000D01*
X143232142Y-98358333D01*
X145581666Y-98925000D02*
X145581666Y-98591666D01*
X145867380Y-98991666D02*
X144867380Y-98758333D01*
X145867380Y-98525000D01*
X144962619Y-98325000D02*
X144915000Y-98291666D01*
X144867380Y-98225000D01*
X144867380Y-98058333D01*
X144915000Y-97991666D01*
X144962619Y-97958333D01*
X145057857Y-97925000D01*
X145153095Y-97925000D01*
X145295952Y-97958333D01*
X145867380Y-98358333D01*
X145867380Y-97925000D01*
X148121666Y-98925000D02*
X148121666Y-98591666D01*
X148407380Y-98991666D02*
X147407380Y-98758333D01*
X148407380Y-98525000D01*
X148407380Y-97925000D02*
X148407380Y-98325000D01*
X148407380Y-98125000D02*
X147407380Y-98125000D01*
X147550238Y-98191666D01*
X147645476Y-98258333D01*
X147693095Y-98325000D01*
X150661666Y-98925000D02*
X150661666Y-98591666D01*
X150947380Y-98991666D02*
X149947380Y-98758333D01*
X150947380Y-98525000D01*
X149947380Y-98158333D02*
X149947380Y-98091666D01*
X149995000Y-98025000D01*
X150042619Y-97991666D01*
X150137857Y-97958333D01*
X150328333Y-97925000D01*
X150566428Y-97925000D01*
X150756904Y-97958333D01*
X150852142Y-97991666D01*
X150899761Y-98025000D01*
X150947380Y-98091666D01*
X150947380Y-98158333D01*
X150899761Y-98225000D01*
X150852142Y-98258333D01*
X150756904Y-98291666D01*
X150566428Y-98325000D01*
X150328333Y-98325000D01*
X150137857Y-98291666D01*
X150042619Y-98258333D01*
X149995000Y-98225000D01*
X149947380Y-98158333D01*
X136144047Y-75636428D02*
X136905952Y-75636428D01*
X174244047Y-50871428D02*
X175005952Y-50871428D01*
X167259047Y-50871428D02*
X168020952Y-50871428D01*
X167894047Y-61666428D02*
X168655952Y-61666428D01*
X174879047Y-61666428D02*
X175640952Y-61666428D01*
X99314047Y-107386428D02*
X100075952Y-107386428D01*
X178054047Y-113101428D02*
X178815952Y-113101428D01*
X169164047Y-113101428D02*
X169925952Y-113101428D01*
X155194047Y-120721428D02*
X155955952Y-120721428D01*
D12*
X98038384Y-115249865D02*
X98108067Y-115383356D01*
X98109243Y-115450689D01*
X98077339Y-115552277D01*
X97978102Y-115655040D01*
X97877690Y-115690469D01*
X97810357Y-115691645D01*
X97708769Y-115659741D01*
X97434735Y-115395109D01*
X98129393Y-114675769D01*
X98369173Y-114907322D01*
X98404603Y-115007734D01*
X98405778Y-115075068D01*
X98373875Y-115176655D01*
X98307717Y-115245164D01*
X98207304Y-115280593D01*
X98139971Y-115281769D01*
X98038384Y-115249865D01*
X97798604Y-115018312D01*
X98462363Y-116387478D02*
X98826232Y-116010681D01*
X98858136Y-115909094D01*
X98822706Y-115808681D01*
X98685689Y-115676366D01*
X98584101Y-115644462D01*
X98495442Y-116353224D02*
X98393855Y-116321320D01*
X98222583Y-116155925D01*
X98187154Y-116055513D01*
X98219057Y-115953926D01*
X98285215Y-115885417D01*
X98385628Y-115849988D01*
X98487215Y-115881891D01*
X98658486Y-116047286D01*
X98760074Y-116079190D01*
X99146273Y-116981724D02*
X99044686Y-116949821D01*
X98907669Y-116817505D01*
X98872239Y-116717093D01*
X98871064Y-116649759D01*
X98902968Y-116548172D01*
X99101441Y-116342646D01*
X99201854Y-116307217D01*
X99269187Y-116306041D01*
X99370774Y-116337945D01*
X99507792Y-116470261D01*
X99543221Y-116570673D01*
X99421483Y-117313689D02*
X100116141Y-116594350D01*
X99754623Y-117105813D02*
X99695517Y-117578321D01*
X100158623Y-117098761D02*
X99619957Y-117108164D01*
X101040836Y-119407067D02*
X101039661Y-119339734D01*
X101070389Y-119170813D01*
X101102293Y-119069225D01*
X101167276Y-118933384D01*
X101298416Y-118729033D01*
X101430732Y-118592016D01*
X101630381Y-118453824D01*
X101763873Y-118384140D01*
X101864285Y-118348710D01*
X102032030Y-118312105D01*
X102099363Y-118310930D01*
X102056712Y-119726104D02*
X101989378Y-119727279D01*
X101853537Y-119662296D01*
X101785028Y-119596138D01*
X101715344Y-119462647D01*
X101712994Y-119327981D01*
X101744897Y-119226393D01*
X101842959Y-119056297D01*
X101942196Y-118953534D01*
X102108766Y-118849596D01*
X102209178Y-118814166D01*
X102343845Y-118811816D01*
X102479686Y-118876798D01*
X102548195Y-118942956D01*
X102617879Y-119076448D01*
X102619054Y-119143781D01*
X102401605Y-120191560D02*
X102366175Y-120091148D01*
X102365000Y-120023814D01*
X102396904Y-119922227D01*
X102595378Y-119716701D01*
X102695790Y-119681272D01*
X102763123Y-119680096D01*
X102864711Y-119712000D01*
X102967473Y-119811237D01*
X103002903Y-119911649D01*
X103004078Y-119978982D01*
X102972175Y-120080570D01*
X102773701Y-120286095D01*
X102673289Y-120321525D01*
X102605955Y-120322700D01*
X102504368Y-120290797D01*
X102401605Y-120191560D01*
X102949673Y-120720823D02*
X103412779Y-120241263D01*
X103346621Y-120309772D02*
X103413954Y-120308597D01*
X103515542Y-120340500D01*
X103618305Y-120439737D01*
X103653734Y-120540149D01*
X103621831Y-120641737D01*
X103257962Y-121018534D01*
X103621831Y-120641737D02*
X103722243Y-120606307D01*
X103823830Y-120638211D01*
X103926593Y-120737448D01*
X103962023Y-120837860D01*
X103930119Y-120939448D01*
X103566250Y-121316245D01*
X104371899Y-121167475D02*
X103677240Y-121886814D01*
X104338820Y-121201729D02*
X104440407Y-121233633D01*
X104577424Y-121365948D01*
X104612854Y-121466361D01*
X104614029Y-121533694D01*
X104582126Y-121635281D01*
X104383652Y-121840807D01*
X104283240Y-121876237D01*
X104215906Y-121877412D01*
X104114319Y-121845508D01*
X103977302Y-121713192D01*
X103941872Y-121612780D01*
X104662387Y-122374772D02*
X104626958Y-122274360D01*
X104625782Y-122207026D01*
X104657686Y-122105439D01*
X104856160Y-121899913D01*
X104956572Y-121864484D01*
X105023905Y-121863308D01*
X105125493Y-121895212D01*
X105228256Y-121994449D01*
X105263685Y-122094861D01*
X105264861Y-122162194D01*
X105232957Y-122263782D01*
X105034483Y-122469307D01*
X104934071Y-122504737D01*
X104866738Y-122505912D01*
X104765150Y-122474009D01*
X104662387Y-122374772D01*
X105673561Y-122424475D02*
X105210456Y-122904035D01*
X105607403Y-122492984D02*
X105674737Y-122491809D01*
X105776324Y-122523712D01*
X105879087Y-122622949D01*
X105914517Y-122723361D01*
X105882613Y-122824949D01*
X105518744Y-123201746D01*
X106168400Y-123762913D02*
X106066813Y-123731010D01*
X105929795Y-123598694D01*
X105894366Y-123498281D01*
X105926270Y-123396694D01*
X106190901Y-123122660D01*
X106291314Y-123087230D01*
X106392901Y-123119134D01*
X106529918Y-123251450D01*
X106565348Y-123351862D01*
X106533444Y-123453449D01*
X106467286Y-123521958D01*
X106058585Y-123259677D01*
X106940969Y-123648397D02*
X106477864Y-124127957D01*
X106874812Y-123716906D02*
X106942145Y-123715731D01*
X107043732Y-123747634D01*
X107146495Y-123846871D01*
X107181925Y-123947283D01*
X107150021Y-124048871D01*
X106786152Y-124425668D01*
X107489038Y-124177661D02*
X107763072Y-124442293D01*
X107823354Y-124037118D02*
X107227932Y-124653695D01*
X107196028Y-124755282D01*
X107231458Y-124855695D01*
X107299967Y-124921852D01*
X107206606Y-125361282D02*
X107273939Y-125360106D01*
X107441685Y-125323501D01*
X107542097Y-125288072D01*
X107675588Y-125218388D01*
X107875237Y-125080195D01*
X108007553Y-124943178D01*
X108138694Y-124738828D01*
X108203676Y-124602986D01*
X108235580Y-124501399D01*
X108266309Y-124332478D01*
X108265133Y-124265145D01*
X182089001Y-50602684D02*
X182119191Y-50750212D01*
X182101761Y-50815261D01*
X182043092Y-50904119D01*
X181919374Y-50975547D01*
X181813086Y-50981927D01*
X181748037Y-50964497D01*
X181659178Y-50905828D01*
X181468702Y-50575914D01*
X182334728Y-50075914D01*
X182501394Y-50364589D01*
X182507774Y-50470877D01*
X182490344Y-50535926D01*
X182431675Y-50624784D01*
X182349197Y-50672403D01*
X182242908Y-50678783D01*
X182177860Y-50661353D01*
X182089001Y-50602684D01*
X181922335Y-50314009D01*
X182182988Y-51813093D02*
X182636620Y-51551188D01*
X182695289Y-51462330D01*
X182688910Y-51356042D01*
X182593672Y-51191085D01*
X182504813Y-51132415D01*
X182224227Y-51789284D02*
X182135369Y-51730614D01*
X182016321Y-51524418D01*
X182009942Y-51418130D01*
X182068611Y-51329271D01*
X182151089Y-51281652D01*
X182257377Y-51275273D01*
X182346236Y-51333942D01*
X182465283Y-51540138D01*
X182554142Y-51598807D01*
X182676608Y-52572830D02*
X182587750Y-52514161D01*
X182492512Y-52349204D01*
X182486132Y-52242916D01*
X182503562Y-52177867D01*
X182562231Y-52089009D01*
X182809667Y-51946152D01*
X182915955Y-51939772D01*
X182981004Y-51957202D01*
X183069862Y-52015871D01*
X183165100Y-52180828D01*
X183171480Y-52287116D01*
X182849655Y-52967794D02*
X183715680Y-52467794D01*
X183227188Y-52859796D02*
X183040131Y-53297708D01*
X183617481Y-52964375D02*
X183097091Y-52824936D01*
X183829264Y-55426432D02*
X183846694Y-55361383D01*
X183922793Y-55207476D01*
X183981462Y-55118617D01*
X184081370Y-55005949D01*
X184263757Y-54845662D01*
X184428714Y-54750424D01*
X184658720Y-54672616D01*
X184806248Y-54642427D01*
X184912536Y-54636047D01*
X185083873Y-54647097D01*
X185148922Y-54664527D01*
X184717848Y-56013122D02*
X184652799Y-55995693D01*
X184540131Y-55895784D01*
X184492512Y-55813306D01*
X184462323Y-55665778D01*
X184497182Y-55535681D01*
X184555851Y-55446822D01*
X184696999Y-55310345D01*
X184820717Y-55238916D01*
X185009484Y-55184917D01*
X185115772Y-55178538D01*
X185245869Y-55213397D01*
X185358537Y-55313306D01*
X185406156Y-55395784D01*
X185436346Y-55543312D01*
X185418916Y-55608360D01*
X184921083Y-56555613D02*
X184914704Y-56449325D01*
X184932133Y-56384276D01*
X184990802Y-56295418D01*
X185238238Y-56152561D01*
X185344526Y-56146181D01*
X185409575Y-56163611D01*
X185498434Y-56222280D01*
X185569862Y-56345998D01*
X185576242Y-56452286D01*
X185558812Y-56517335D01*
X185500143Y-56606193D01*
X185252707Y-56749050D01*
X185146419Y-56755430D01*
X185081370Y-56738000D01*
X184992512Y-56679331D01*
X184921083Y-56555613D01*
X185302036Y-57215442D02*
X185879386Y-56882109D01*
X185796907Y-56929728D02*
X185861956Y-56947157D01*
X185950814Y-57005827D01*
X186022243Y-57129544D01*
X186028623Y-57235833D01*
X185969954Y-57324691D01*
X185516321Y-57586596D01*
X185969954Y-57324691D02*
X186076242Y-57318311D01*
X186165100Y-57376980D01*
X186236529Y-57500698D01*
X186242908Y-57606986D01*
X186184239Y-57695845D01*
X185730607Y-57957749D01*
X186546053Y-58036809D02*
X185680027Y-58536809D01*
X186504813Y-58060619D02*
X186593672Y-58119288D01*
X186688910Y-58284245D01*
X186695289Y-58390533D01*
X186677860Y-58455582D01*
X186619191Y-58544440D01*
X186371755Y-58687297D01*
X186265467Y-58693677D01*
X186200418Y-58676247D01*
X186111559Y-58617578D01*
X186016321Y-58452621D01*
X186009942Y-58346333D01*
X186492512Y-59277407D02*
X186486132Y-59171119D01*
X186503562Y-59106070D01*
X186562231Y-59017212D01*
X186809667Y-58874355D01*
X186915955Y-58867975D01*
X186981004Y-58885405D01*
X187069862Y-58944074D01*
X187141291Y-59067792D01*
X187147670Y-59174080D01*
X187130241Y-59239129D01*
X187071572Y-59327987D01*
X186824136Y-59470844D01*
X186717848Y-59477224D01*
X186652799Y-59459794D01*
X186563940Y-59401125D01*
X186492512Y-59277407D01*
X187450814Y-59603903D02*
X186873464Y-59937236D01*
X187368336Y-59651522D02*
X187433385Y-59668952D01*
X187522243Y-59727621D01*
X187593672Y-59851339D01*
X187600051Y-59957627D01*
X187541382Y-60046485D01*
X187087750Y-60308390D01*
X187557561Y-61026888D02*
X187468702Y-60968219D01*
X187373464Y-60803262D01*
X187367084Y-60696973D01*
X187425754Y-60608115D01*
X187755668Y-60417639D01*
X187861956Y-60411259D01*
X187950814Y-60469928D01*
X188046053Y-60634885D01*
X188052432Y-60741174D01*
X187993763Y-60830032D01*
X187911285Y-60877651D01*
X187590711Y-60512877D01*
X188331767Y-61129757D02*
X187754417Y-61463090D01*
X188249288Y-61177376D02*
X188314337Y-61194806D01*
X188403195Y-61253475D01*
X188474624Y-61377193D01*
X188481004Y-61483481D01*
X188422335Y-61572339D01*
X187968702Y-61834244D01*
X188712719Y-61789586D02*
X188903195Y-62119500D01*
X189072823Y-61746637D02*
X188330515Y-62175209D01*
X188271846Y-62264067D01*
X188278226Y-62370355D01*
X188325845Y-62452834D01*
X188114978Y-62849506D02*
X188180027Y-62866936D01*
X188351364Y-62877986D01*
X188457652Y-62871607D01*
X188605180Y-62841417D01*
X188835186Y-62763609D01*
X189000143Y-62668371D01*
X189182530Y-62508084D01*
X189282438Y-62395416D01*
X189341107Y-62306558D01*
X189417206Y-62152650D01*
X189434636Y-62087602D01*
D11*
X111912380Y-46148571D02*
X111864761Y-46205714D01*
X111721904Y-46262857D01*
X111626666Y-46262857D01*
X111483809Y-46205714D01*
X111388571Y-46091428D01*
X111340952Y-45977142D01*
X111293333Y-45748571D01*
X111293333Y-45577142D01*
X111340952Y-45348571D01*
X111388571Y-45234285D01*
X111483809Y-45120000D01*
X111626666Y-45062857D01*
X111721904Y-45062857D01*
X111864761Y-45120000D01*
X111912380Y-45177142D01*
X112817142Y-46262857D02*
X112340952Y-46262857D01*
X112340952Y-45062857D01*
X113340952Y-45062857D02*
X113531428Y-45062857D01*
X113626666Y-45120000D01*
X113721904Y-45234285D01*
X113769523Y-45462857D01*
X113769523Y-45862857D01*
X113721904Y-46091428D01*
X113626666Y-46205714D01*
X113531428Y-46262857D01*
X113340952Y-46262857D01*
X113245714Y-46205714D01*
X113150476Y-46091428D01*
X113102857Y-45862857D01*
X113102857Y-45462857D01*
X113150476Y-45234285D01*
X113245714Y-45120000D01*
X113340952Y-45062857D01*
X114769523Y-46148571D02*
X114721904Y-46205714D01*
X114579047Y-46262857D01*
X114483809Y-46262857D01*
X114340952Y-46205714D01*
X114245714Y-46091428D01*
X114198095Y-45977142D01*
X114150476Y-45748571D01*
X114150476Y-45577142D01*
X114198095Y-45348571D01*
X114245714Y-45234285D01*
X114340952Y-45120000D01*
X114483809Y-45062857D01*
X114579047Y-45062857D01*
X114721904Y-45120000D01*
X114769523Y-45177142D01*
X115198095Y-46262857D02*
X115198095Y-45062857D01*
X115769523Y-46262857D02*
X115340952Y-45577142D01*
X115769523Y-45062857D02*
X115198095Y-45748571D01*
X116198095Y-45805714D02*
X116959999Y-45805714D01*
X117293333Y-45062857D02*
X117864761Y-45062857D01*
X117579047Y-46262857D02*
X117579047Y-45062857D01*
X118198095Y-46262857D02*
X118198095Y-45062857D01*
X118674285Y-46262857D02*
X118674285Y-45062857D01*
X119007619Y-45920000D01*
X119340952Y-45062857D01*
X119340952Y-46262857D01*
X119817142Y-45634285D02*
X120150476Y-45634285D01*
X120293333Y-46262857D02*
X119817142Y-46262857D01*
X119817142Y-45062857D01*
X120293333Y-45062857D01*
X121293333Y-46262857D02*
X120959999Y-45691428D01*
X120721904Y-46262857D02*
X120721904Y-45062857D01*
X121102857Y-45062857D01*
X121198095Y-45120000D01*
X121245714Y-45177142D01*
X121293333Y-45291428D01*
X121293333Y-45462857D01*
X121245714Y-45577142D01*
X121198095Y-45634285D01*
X121102857Y-45691428D01*
X120721904Y-45691428D01*
X123150476Y-45462857D02*
X123388571Y-46262857D01*
X123626666Y-45462857D01*
X124388571Y-46205714D02*
X124293333Y-46262857D01*
X124102857Y-46262857D01*
X124007619Y-46205714D01*
X123959999Y-46091428D01*
X123959999Y-45634285D01*
X124007619Y-45520000D01*
X124102857Y-45462857D01*
X124293333Y-45462857D01*
X124388571Y-45520000D01*
X124436190Y-45634285D01*
X124436190Y-45748571D01*
X123959999Y-45862857D01*
X124864761Y-46262857D02*
X124864761Y-45462857D01*
X124864761Y-45691428D02*
X124912380Y-45577142D01*
X124959999Y-45520000D01*
X125055238Y-45462857D01*
X125150476Y-45462857D01*
X125483809Y-45805714D02*
X126245714Y-45805714D01*
X126674285Y-45177142D02*
X126721904Y-45120000D01*
X126817142Y-45062857D01*
X127055238Y-45062857D01*
X127150476Y-45120000D01*
X127198095Y-45177142D01*
X127245714Y-45291428D01*
X127245714Y-45405714D01*
X127198095Y-45577142D01*
X126626666Y-46262857D01*
X127245714Y-46262857D01*
X129483809Y-46720000D02*
X129436190Y-46662857D01*
X129340952Y-46491428D01*
X129293333Y-46377142D01*
X129245714Y-46205714D01*
X129198095Y-45920000D01*
X129198095Y-45691428D01*
X129245714Y-45405714D01*
X129293333Y-45234285D01*
X129340952Y-45120000D01*
X129436190Y-44948571D01*
X129483809Y-44891428D01*
X130150476Y-45062857D02*
X130150476Y-45920000D01*
X130102857Y-46091428D01*
X130007619Y-46205714D01*
X129864761Y-46262857D01*
X129769523Y-46262857D01*
X131055238Y-45462857D02*
X131055238Y-46262857D01*
X130626666Y-45462857D02*
X130626666Y-46091428D01*
X130674285Y-46205714D01*
X130769523Y-46262857D01*
X130912380Y-46262857D01*
X131007619Y-46205714D01*
X131055238Y-46148571D01*
X131674285Y-46262857D02*
X131579047Y-46205714D01*
X131531428Y-46091428D01*
X131531428Y-45062857D01*
X131959999Y-45462857D02*
X132198095Y-46262857D01*
X132436190Y-45462857D02*
X132198095Y-46262857D01*
X132102857Y-46548571D01*
X132055238Y-46605714D01*
X131959999Y-46662857D01*
X133531428Y-45177142D02*
X133579047Y-45120000D01*
X133674285Y-45062857D01*
X133912380Y-45062857D01*
X134007619Y-45120000D01*
X134055238Y-45177142D01*
X134102857Y-45291428D01*
X134102857Y-45405714D01*
X134055238Y-45577142D01*
X133483809Y-46262857D01*
X134102857Y-46262857D01*
X134721904Y-45062857D02*
X134817142Y-45062857D01*
X134912380Y-45120000D01*
X134960000Y-45177142D01*
X135007619Y-45291428D01*
X135055238Y-45520000D01*
X135055238Y-45805714D01*
X135007619Y-46034285D01*
X134960000Y-46148571D01*
X134912380Y-46205714D01*
X134817142Y-46262857D01*
X134721904Y-46262857D01*
X134626666Y-46205714D01*
X134579047Y-46148571D01*
X134531428Y-46034285D01*
X134483809Y-45805714D01*
X134483809Y-45520000D01*
X134531428Y-45291428D01*
X134579047Y-45177142D01*
X134626666Y-45120000D01*
X134721904Y-45062857D01*
X135436190Y-45177142D02*
X135483809Y-45120000D01*
X135579047Y-45062857D01*
X135817142Y-45062857D01*
X135912380Y-45120000D01*
X135959999Y-45177142D01*
X136007619Y-45291428D01*
X136007619Y-45405714D01*
X135959999Y-45577142D01*
X135388571Y-46262857D01*
X136007619Y-46262857D01*
X136626666Y-45062857D02*
X136721904Y-45062857D01*
X136817142Y-45120000D01*
X136864761Y-45177142D01*
X136912380Y-45291428D01*
X136959999Y-45520000D01*
X136959999Y-45805714D01*
X136912380Y-46034285D01*
X136864761Y-46148571D01*
X136817142Y-46205714D01*
X136721904Y-46262857D01*
X136626666Y-46262857D01*
X136531428Y-46205714D01*
X136483809Y-46148571D01*
X136436190Y-46034285D01*
X136388571Y-45805714D01*
X136388571Y-45520000D01*
X136436190Y-45291428D01*
X136483809Y-45177142D01*
X136531428Y-45120000D01*
X136626666Y-45062857D01*
X137293333Y-46720000D02*
X137340952Y-46662857D01*
X137436190Y-46491428D01*
X137483809Y-46377142D01*
X137531428Y-46205714D01*
X137579047Y-45920000D01*
X137579047Y-45691428D01*
X137531428Y-45405714D01*
X137483809Y-45234285D01*
X137436190Y-45120000D01*
X137340952Y-44948571D01*
X137293333Y-44891428D01*
X116628571Y-49228571D02*
X116533333Y-49171428D01*
X116342857Y-49171428D01*
X116247619Y-49228571D01*
X116152380Y-49342857D01*
X116104761Y-49457142D01*
X116104761Y-49685714D01*
X116152380Y-49800000D01*
X116247619Y-49914285D01*
X116342857Y-49971428D01*
X116533333Y-49971428D01*
X116628571Y-49914285D01*
X116438095Y-48771428D02*
X116199999Y-48828571D01*
X115961904Y-49000000D01*
X115819047Y-49285714D01*
X115771428Y-49571428D01*
X115819047Y-49857142D01*
X115961904Y-50142857D01*
X116199999Y-50314285D01*
X116438095Y-50371428D01*
X116676190Y-50314285D01*
X116914285Y-50142857D01*
X117057142Y-49857142D01*
X117104761Y-49571428D01*
X117057142Y-49285714D01*
X116914285Y-49000000D01*
X116676190Y-48828571D01*
X116438095Y-48771428D01*
X118247619Y-49057142D02*
X118295238Y-49000000D01*
X118390476Y-48942857D01*
X118628571Y-48942857D01*
X118723809Y-49000000D01*
X118771428Y-49057142D01*
X118819047Y-49171428D01*
X118819047Y-49285714D01*
X118771428Y-49457142D01*
X118199999Y-50142857D01*
X118819047Y-50142857D01*
X119438095Y-48942857D02*
X119533333Y-48942857D01*
X119628571Y-49000000D01*
X119676190Y-49057142D01*
X119723809Y-49171428D01*
X119771428Y-49400000D01*
X119771428Y-49685714D01*
X119723809Y-49914285D01*
X119676190Y-50028571D01*
X119628571Y-50085714D01*
X119533333Y-50142857D01*
X119438095Y-50142857D01*
X119342857Y-50085714D01*
X119295238Y-50028571D01*
X119247619Y-49914285D01*
X119199999Y-49685714D01*
X119199999Y-49400000D01*
X119247619Y-49171428D01*
X119295238Y-49057142D01*
X119342857Y-49000000D01*
X119438095Y-48942857D01*
X120152380Y-49057142D02*
X120199999Y-49000000D01*
X120295238Y-48942857D01*
X120533333Y-48942857D01*
X120628571Y-49000000D01*
X120676190Y-49057142D01*
X120723809Y-49171428D01*
X120723809Y-49285714D01*
X120676190Y-49457142D01*
X120104761Y-50142857D01*
X120723809Y-50142857D01*
X121342857Y-48942857D02*
X121438095Y-48942857D01*
X121533333Y-49000000D01*
X121580952Y-49057142D01*
X121628571Y-49171428D01*
X121676190Y-49400000D01*
X121676190Y-49685714D01*
X121628571Y-49914285D01*
X121580952Y-50028571D01*
X121533333Y-50085714D01*
X121438095Y-50142857D01*
X121342857Y-50142857D01*
X121247619Y-50085714D01*
X121199999Y-50028571D01*
X121152380Y-49914285D01*
X121104761Y-49685714D01*
X121104761Y-49400000D01*
X121152380Y-49171428D01*
X121199999Y-49057142D01*
X121247619Y-49000000D01*
X121342857Y-48942857D01*
X123485714Y-48942857D02*
X124057142Y-48942857D01*
X123771428Y-50142857D02*
X123771428Y-48942857D01*
X124342857Y-50085714D02*
X124485714Y-50142857D01*
X124723809Y-50142857D01*
X124819047Y-50085714D01*
X124866666Y-50028571D01*
X124914285Y-49914285D01*
X124914285Y-49800000D01*
X124866666Y-49685714D01*
X124819047Y-49628571D01*
X124723809Y-49571428D01*
X124533333Y-49514285D01*
X124438095Y-49457142D01*
X124390476Y-49400000D01*
X124342857Y-49285714D01*
X124342857Y-49171428D01*
X124390476Y-49057142D01*
X124438095Y-49000000D01*
X124533333Y-48942857D01*
X124771428Y-48942857D01*
X124914285Y-49000000D01*
X125199999Y-48942857D02*
X125533333Y-50142857D01*
X125866666Y-48942857D01*
X126961904Y-50142857D02*
X126961904Y-48942857D01*
X127533333Y-50142857D02*
X127104761Y-49457142D01*
X127533333Y-48942857D02*
X126961904Y-49628571D01*
X127961904Y-48942857D02*
X127961904Y-49914285D01*
X128009523Y-50028571D01*
X128057142Y-50085714D01*
X128152380Y-50142857D01*
X128342857Y-50142857D01*
X128438095Y-50085714D01*
X128485714Y-50028571D01*
X128533333Y-49914285D01*
X128533333Y-48942857D01*
X129580952Y-50142857D02*
X129247619Y-49571428D01*
X129009523Y-50142857D02*
X129009523Y-48942857D01*
X129390476Y-48942857D01*
X129485714Y-49000000D01*
X129533333Y-49057142D01*
X129580952Y-49171428D01*
X129580952Y-49342857D01*
X129533333Y-49457142D01*
X129485714Y-49514285D01*
X129390476Y-49571428D01*
X129009523Y-49571428D01*
X130009523Y-48942857D02*
X130009523Y-49914285D01*
X130057142Y-50028571D01*
X130104761Y-50085714D01*
X130199999Y-50142857D01*
X130390476Y-50142857D01*
X130485714Y-50085714D01*
X130533333Y-50028571D01*
X130580952Y-49914285D01*
X130580952Y-48942857D01*
X131057142Y-50142857D02*
X131057142Y-48942857D01*
X131438095Y-48942857D01*
X131533333Y-49000000D01*
X131580952Y-49057142D01*
X131628571Y-49171428D01*
X131628571Y-49342857D01*
X131580952Y-49457142D01*
X131533333Y-49514285D01*
X131438095Y-49571428D01*
X131057142Y-49571428D01*
X165989047Y-48331428D02*
X166750952Y-48331428D01*
X138684047Y-85796428D02*
X139445952Y-85796428D01*
X139065000Y-86177380D02*
X139065000Y-85415476D01*
D10*
X194111796Y-82550000D02*
G75*
G03X194111796Y-82550000I-54411796J0D01*
G01*
D11*
X101465000Y-102108095D02*
X101512619Y-102012857D01*
X101512619Y-101870000D01*
X101465000Y-101727142D01*
X101369761Y-101631904D01*
X101274523Y-101584285D01*
X101084047Y-101536666D01*
X100941190Y-101536666D01*
X100750714Y-101584285D01*
X100655476Y-101631904D01*
X100560238Y-101727142D01*
X100512619Y-101870000D01*
X100512619Y-101965238D01*
X100560238Y-102108095D01*
X100607857Y-102155714D01*
X100941190Y-102155714D01*
X100941190Y-101965238D01*
X100512619Y-102584285D02*
X101512619Y-102584285D01*
X100512619Y-103155714D01*
X101512619Y-103155714D01*
X100512619Y-103631904D02*
X101512619Y-103631904D01*
X101512619Y-103870000D01*
X101465000Y-104012857D01*
X101369761Y-104108095D01*
X101274523Y-104155714D01*
X101084047Y-104203333D01*
X100941190Y-104203333D01*
X100750714Y-104155714D01*
X100655476Y-104108095D01*
X100560238Y-104012857D01*
X100512619Y-103870000D01*
X100512619Y-103631904D01*
X104052619Y-101679523D02*
X103052619Y-102012857D01*
X104052619Y-102346190D01*
X103100238Y-103108095D02*
X103052619Y-103012857D01*
X103052619Y-102822380D01*
X103100238Y-102727142D01*
X103147857Y-102679523D01*
X103243095Y-102631904D01*
X103528809Y-102631904D01*
X103624047Y-102679523D01*
X103671666Y-102727142D01*
X103719285Y-102822380D01*
X103719285Y-103012857D01*
X103671666Y-103108095D01*
X103100238Y-103965238D02*
X103052619Y-103870000D01*
X103052619Y-103679523D01*
X103100238Y-103584285D01*
X103147857Y-103536666D01*
X103243095Y-103489047D01*
X103528809Y-103489047D01*
X103624047Y-103536666D01*
X103671666Y-103584285D01*
X103719285Y-103679523D01*
X103719285Y-103870000D01*
X103671666Y-103965238D01*
X105640238Y-101655714D02*
X105592619Y-101798571D01*
X105592619Y-102036666D01*
X105640238Y-102131904D01*
X105687857Y-102179523D01*
X105783095Y-102227142D01*
X105878333Y-102227142D01*
X105973571Y-102179523D01*
X106021190Y-102131904D01*
X106068809Y-102036666D01*
X106116428Y-101846190D01*
X106164047Y-101750952D01*
X106211666Y-101703333D01*
X106306904Y-101655714D01*
X106402142Y-101655714D01*
X106497380Y-101703333D01*
X106545000Y-101750952D01*
X106592619Y-101846190D01*
X106592619Y-102084285D01*
X106545000Y-102227142D01*
X105592619Y-102655714D02*
X106592619Y-102655714D01*
X106592619Y-102893809D01*
X106545000Y-103036666D01*
X106449761Y-103131904D01*
X106354523Y-103179523D01*
X106164047Y-103227142D01*
X106021190Y-103227142D01*
X105830714Y-103179523D01*
X105735476Y-103131904D01*
X105640238Y-103036666D01*
X105592619Y-102893809D01*
X105592619Y-102655714D01*
X105878333Y-103608095D02*
X105878333Y-104084285D01*
X105592619Y-103512857D02*
X106592619Y-103846190D01*
X105592619Y-104179523D01*
X108180238Y-101679523D02*
X108132619Y-101822380D01*
X108132619Y-102060476D01*
X108180238Y-102155714D01*
X108227857Y-102203333D01*
X108323095Y-102250952D01*
X108418333Y-102250952D01*
X108513571Y-102203333D01*
X108561190Y-102155714D01*
X108608809Y-102060476D01*
X108656428Y-101870000D01*
X108704047Y-101774761D01*
X108751666Y-101727142D01*
X108846904Y-101679523D01*
X108942142Y-101679523D01*
X109037380Y-101727142D01*
X109085000Y-101774761D01*
X109132619Y-101870000D01*
X109132619Y-102108095D01*
X109085000Y-102250952D01*
X108227857Y-103250952D02*
X108180238Y-103203333D01*
X108132619Y-103060476D01*
X108132619Y-102965238D01*
X108180238Y-102822380D01*
X108275476Y-102727142D01*
X108370714Y-102679523D01*
X108561190Y-102631904D01*
X108704047Y-102631904D01*
X108894523Y-102679523D01*
X108989761Y-102727142D01*
X109085000Y-102822380D01*
X109132619Y-102965238D01*
X109132619Y-103060476D01*
X109085000Y-103203333D01*
X109037380Y-103250952D01*
X108132619Y-104155714D02*
X108132619Y-103679523D01*
X109132619Y-103679523D01*
X172457142Y-93797380D02*
X172457142Y-92797380D01*
X172457142Y-93749761D02*
X172342857Y-93797380D01*
X172114285Y-93797380D01*
X172000000Y-93749761D01*
X171942857Y-93702142D01*
X171885714Y-93606904D01*
X171885714Y-93321190D01*
X171942857Y-93225952D01*
X172000000Y-93178333D01*
X172114285Y-93130714D01*
X172342857Y-93130714D01*
X172457142Y-93178333D01*
X173028571Y-93130714D02*
X173028571Y-94130714D01*
X173028571Y-93178333D02*
X173142857Y-93130714D01*
X173371428Y-93130714D01*
X173485714Y-93178333D01*
X173542857Y-93225952D01*
X173600000Y-93321190D01*
X173600000Y-93606904D01*
X173542857Y-93702142D01*
X173485714Y-93749761D01*
X173371428Y-93797380D01*
X173142857Y-93797380D01*
X173028571Y-93749761D01*
X175542857Y-93749761D02*
X175428571Y-93797380D01*
X175200000Y-93797380D01*
X175085714Y-93749761D01*
X175028571Y-93702142D01*
X174971428Y-93606904D01*
X174971428Y-93321190D01*
X175028571Y-93225952D01*
X175085714Y-93178333D01*
X175200000Y-93130714D01*
X175428571Y-93130714D01*
X175542857Y-93178333D01*
X177885714Y-93416428D02*
X178800000Y-93416428D01*
X178342857Y-93797380D02*
X178342857Y-93035476D01*
X180800000Y-93797380D02*
X180800000Y-92797380D01*
X180800000Y-93749761D02*
X180685714Y-93797380D01*
X180457142Y-93797380D01*
X180342857Y-93749761D01*
X180285714Y-93702142D01*
X180228571Y-93606904D01*
X180228571Y-93321190D01*
X180285714Y-93225952D01*
X180342857Y-93178333D01*
X180457142Y-93130714D01*
X180685714Y-93130714D01*
X180800000Y-93178333D01*
X183657142Y-93749761D02*
X183542857Y-93797380D01*
X183314285Y-93797380D01*
X183200000Y-93749761D01*
X183142857Y-93654523D01*
X183142857Y-93273571D01*
X183200000Y-93178333D01*
X183314285Y-93130714D01*
X183542857Y-93130714D01*
X183657142Y-93178333D01*
X183714285Y-93273571D01*
X183714285Y-93368809D01*
X183142857Y-93464047D01*
X148327142Y-93797380D02*
X148327142Y-92797380D01*
X148327142Y-93749761D02*
X148212857Y-93797380D01*
X147984285Y-93797380D01*
X147870000Y-93749761D01*
X147812857Y-93702142D01*
X147755714Y-93606904D01*
X147755714Y-93321190D01*
X147812857Y-93225952D01*
X147870000Y-93178333D01*
X147984285Y-93130714D01*
X148212857Y-93130714D01*
X148327142Y-93178333D01*
X148898571Y-93130714D02*
X148898571Y-94130714D01*
X148898571Y-93178333D02*
X149012857Y-93130714D01*
X149241428Y-93130714D01*
X149355714Y-93178333D01*
X149412857Y-93225952D01*
X149470000Y-93321190D01*
X149470000Y-93606904D01*
X149412857Y-93702142D01*
X149355714Y-93749761D01*
X149241428Y-93797380D01*
X149012857Y-93797380D01*
X148898571Y-93749761D01*
X151412857Y-93749761D02*
X151298571Y-93797380D01*
X151070000Y-93797380D01*
X150955714Y-93749761D01*
X150898571Y-93702142D01*
X150841428Y-93606904D01*
X150841428Y-93321190D01*
X150898571Y-93225952D01*
X150955714Y-93178333D01*
X151070000Y-93130714D01*
X151298571Y-93130714D01*
X151412857Y-93178333D01*
X153755714Y-93416428D02*
X154670000Y-93416428D01*
X154212857Y-93797380D02*
X154212857Y-93035476D01*
X156670000Y-93797380D02*
X156670000Y-92797380D01*
X156670000Y-93749761D02*
X156555714Y-93797380D01*
X156327142Y-93797380D01*
X156212857Y-93749761D01*
X156155714Y-93702142D01*
X156098571Y-93606904D01*
X156098571Y-93321190D01*
X156155714Y-93225952D01*
X156212857Y-93178333D01*
X156327142Y-93130714D01*
X156555714Y-93130714D01*
X156670000Y-93178333D01*
X159527142Y-93749761D02*
X159412857Y-93797380D01*
X159184285Y-93797380D01*
X159070000Y-93749761D01*
X159012857Y-93654523D01*
X159012857Y-93273571D01*
X159070000Y-93178333D01*
X159184285Y-93130714D01*
X159412857Y-93130714D01*
X159527142Y-93178333D01*
X159584285Y-93273571D01*
X159584285Y-93368809D01*
X159012857Y-93464047D01*
X148327142Y-93797380D02*
X148327142Y-92797380D01*
X148327142Y-93749761D02*
X148212857Y-93797380D01*
X147984285Y-93797380D01*
X147870000Y-93749761D01*
X147812857Y-93702142D01*
X147755714Y-93606904D01*
X147755714Y-93321190D01*
X147812857Y-93225952D01*
X147870000Y-93178333D01*
X147984285Y-93130714D01*
X148212857Y-93130714D01*
X148327142Y-93178333D01*
X148898571Y-93130714D02*
X148898571Y-94130714D01*
X148898571Y-93178333D02*
X149012857Y-93130714D01*
X149241428Y-93130714D01*
X149355714Y-93178333D01*
X149412857Y-93225952D01*
X149470000Y-93321190D01*
X149470000Y-93606904D01*
X149412857Y-93702142D01*
X149355714Y-93749761D01*
X149241428Y-93797380D01*
X149012857Y-93797380D01*
X148898571Y-93749761D01*
X151412857Y-93749761D02*
X151298571Y-93797380D01*
X151070000Y-93797380D01*
X150955714Y-93749761D01*
X150898571Y-93702142D01*
X150841428Y-93606904D01*
X150841428Y-93321190D01*
X150898571Y-93225952D01*
X150955714Y-93178333D01*
X151070000Y-93130714D01*
X151298571Y-93130714D01*
X151412857Y-93178333D01*
X153755714Y-93416428D02*
X154670000Y-93416428D01*
X154212857Y-93797380D02*
X154212857Y-93035476D01*
X156670000Y-93797380D02*
X156670000Y-92797380D01*
X156670000Y-93749761D02*
X156555714Y-93797380D01*
X156327142Y-93797380D01*
X156212857Y-93749761D01*
X156155714Y-93702142D01*
X156098571Y-93606904D01*
X156098571Y-93321190D01*
X156155714Y-93225952D01*
X156212857Y-93178333D01*
X156327142Y-93130714D01*
X156555714Y-93130714D01*
X156670000Y-93178333D01*
X159527142Y-93749761D02*
X159412857Y-93797380D01*
X159184285Y-93797380D01*
X159070000Y-93749761D01*
X159012857Y-93654523D01*
X159012857Y-93273571D01*
X159070000Y-93178333D01*
X159184285Y-93130714D01*
X159412857Y-93130714D01*
X159527142Y-93178333D01*
X159584285Y-93273571D01*
X159584285Y-93368809D01*
X159012857Y-93464047D01*
X119752142Y-93797380D02*
X119752142Y-92797380D01*
X119752142Y-93749761D02*
X119637857Y-93797380D01*
X119409285Y-93797380D01*
X119295000Y-93749761D01*
X119237857Y-93702142D01*
X119180714Y-93606904D01*
X119180714Y-93321190D01*
X119237857Y-93225952D01*
X119295000Y-93178333D01*
X119409285Y-93130714D01*
X119637857Y-93130714D01*
X119752142Y-93178333D01*
X120323571Y-93130714D02*
X120323571Y-94130714D01*
X120323571Y-93178333D02*
X120437857Y-93130714D01*
X120666428Y-93130714D01*
X120780714Y-93178333D01*
X120837857Y-93225952D01*
X120895000Y-93321190D01*
X120895000Y-93606904D01*
X120837857Y-93702142D01*
X120780714Y-93749761D01*
X120666428Y-93797380D01*
X120437857Y-93797380D01*
X120323571Y-93749761D01*
X122837857Y-93749761D02*
X122723571Y-93797380D01*
X122495000Y-93797380D01*
X122380714Y-93749761D01*
X122323571Y-93702142D01*
X122266428Y-93606904D01*
X122266428Y-93321190D01*
X122323571Y-93225952D01*
X122380714Y-93178333D01*
X122495000Y-93130714D01*
X122723571Y-93130714D01*
X122837857Y-93178333D01*
X125180714Y-93416428D02*
X126095000Y-93416428D01*
X125637857Y-93797380D02*
X125637857Y-93035476D01*
X128095000Y-93797380D02*
X128095000Y-92797380D01*
X128095000Y-93749761D02*
X127980714Y-93797380D01*
X127752142Y-93797380D01*
X127637857Y-93749761D01*
X127580714Y-93702142D01*
X127523571Y-93606904D01*
X127523571Y-93321190D01*
X127580714Y-93225952D01*
X127637857Y-93178333D01*
X127752142Y-93130714D01*
X127980714Y-93130714D01*
X128095000Y-93178333D01*
X130952142Y-93749761D02*
X130837857Y-93797380D01*
X130609285Y-93797380D01*
X130495000Y-93749761D01*
X130437857Y-93654523D01*
X130437857Y-93273571D01*
X130495000Y-93178333D01*
X130609285Y-93130714D01*
X130837857Y-93130714D01*
X130952142Y-93178333D01*
X131009285Y-93273571D01*
X131009285Y-93368809D01*
X130437857Y-93464047D01*
X173092142Y-68397380D02*
X173092142Y-67397380D01*
X173092142Y-67778333D02*
X173206428Y-67730714D01*
X173435000Y-67730714D01*
X173549285Y-67778333D01*
X173606428Y-67825952D01*
X173663571Y-67921190D01*
X173663571Y-68206904D01*
X173606428Y-68302142D01*
X173549285Y-68349761D01*
X173435000Y-68397380D01*
X173206428Y-68397380D01*
X173092142Y-68349761D01*
X176520714Y-68397380D02*
X176520714Y-67873571D01*
X176463571Y-67778333D01*
X176349285Y-67730714D01*
X176120714Y-67730714D01*
X176006428Y-67778333D01*
X176520714Y-68349761D02*
X176406428Y-68397380D01*
X176120714Y-68397380D01*
X176006428Y-68349761D01*
X175949285Y-68254523D01*
X175949285Y-68159285D01*
X176006428Y-68064047D01*
X176120714Y-68016428D01*
X176406428Y-68016428D01*
X176520714Y-67968809D01*
X180577857Y-67730714D02*
X181035000Y-67730714D01*
X180749285Y-68397380D02*
X180749285Y-67540238D01*
X180806428Y-67445000D01*
X180920714Y-67397380D01*
X181035000Y-67397380D01*
X183777857Y-67730714D02*
X183777857Y-68540238D01*
X183720714Y-68635476D01*
X183663571Y-68683095D01*
X183549285Y-68730714D01*
X183377857Y-68730714D01*
X183263571Y-68683095D01*
X183777857Y-68349761D02*
X183663571Y-68397380D01*
X183435000Y-68397380D01*
X183320714Y-68349761D01*
X183263571Y-68302142D01*
X183206428Y-68206904D01*
X183206428Y-67921190D01*
X183263571Y-67825952D01*
X183320714Y-67778333D01*
X183435000Y-67730714D01*
X183663571Y-67730714D01*
X183777857Y-67778333D01*
X148962142Y-68397380D02*
X148962142Y-67397380D01*
X148962142Y-67778333D02*
X149076428Y-67730714D01*
X149305000Y-67730714D01*
X149419285Y-67778333D01*
X149476428Y-67825952D01*
X149533571Y-67921190D01*
X149533571Y-68206904D01*
X149476428Y-68302142D01*
X149419285Y-68349761D01*
X149305000Y-68397380D01*
X149076428Y-68397380D01*
X148962142Y-68349761D01*
X152390714Y-68397380D02*
X152390714Y-67873571D01*
X152333571Y-67778333D01*
X152219285Y-67730714D01*
X151990714Y-67730714D01*
X151876428Y-67778333D01*
X152390714Y-68349761D02*
X152276428Y-68397380D01*
X151990714Y-68397380D01*
X151876428Y-68349761D01*
X151819285Y-68254523D01*
X151819285Y-68159285D01*
X151876428Y-68064047D01*
X151990714Y-68016428D01*
X152276428Y-68016428D01*
X152390714Y-67968809D01*
X156447857Y-67730714D02*
X156905000Y-67730714D01*
X156619285Y-68397380D02*
X156619285Y-67540238D01*
X156676428Y-67445000D01*
X156790714Y-67397380D01*
X156905000Y-67397380D01*
X159647857Y-67730714D02*
X159647857Y-68540238D01*
X159590714Y-68635476D01*
X159533571Y-68683095D01*
X159419285Y-68730714D01*
X159247857Y-68730714D01*
X159133571Y-68683095D01*
X159647857Y-68349761D02*
X159533571Y-68397380D01*
X159305000Y-68397380D01*
X159190714Y-68349761D01*
X159133571Y-68302142D01*
X159076428Y-68206904D01*
X159076428Y-67921190D01*
X159133571Y-67825952D01*
X159190714Y-67778333D01*
X159305000Y-67730714D01*
X159533571Y-67730714D01*
X159647857Y-67778333D01*
X119752142Y-68397380D02*
X119752142Y-67397380D01*
X119752142Y-67778333D02*
X119866428Y-67730714D01*
X120095000Y-67730714D01*
X120209285Y-67778333D01*
X120266428Y-67825952D01*
X120323571Y-67921190D01*
X120323571Y-68206904D01*
X120266428Y-68302142D01*
X120209285Y-68349761D01*
X120095000Y-68397380D01*
X119866428Y-68397380D01*
X119752142Y-68349761D01*
X123180714Y-68397380D02*
X123180714Y-67873571D01*
X123123571Y-67778333D01*
X123009285Y-67730714D01*
X122780714Y-67730714D01*
X122666428Y-67778333D01*
X123180714Y-68349761D02*
X123066428Y-68397380D01*
X122780714Y-68397380D01*
X122666428Y-68349761D01*
X122609285Y-68254523D01*
X122609285Y-68159285D01*
X122666428Y-68064047D01*
X122780714Y-68016428D01*
X123066428Y-68016428D01*
X123180714Y-67968809D01*
X127237857Y-67730714D02*
X127695000Y-67730714D01*
X127409285Y-68397380D02*
X127409285Y-67540238D01*
X127466428Y-67445000D01*
X127580714Y-67397380D01*
X127695000Y-67397380D01*
X130437857Y-67730714D02*
X130437857Y-68540238D01*
X130380714Y-68635476D01*
X130323571Y-68683095D01*
X130209285Y-68730714D01*
X130037857Y-68730714D01*
X129923571Y-68683095D01*
X130437857Y-68349761D02*
X130323571Y-68397380D01*
X130095000Y-68397380D01*
X129980714Y-68349761D01*
X129923571Y-68302142D01*
X129866428Y-68206904D01*
X129866428Y-67921190D01*
X129923571Y-67825952D01*
X129980714Y-67778333D01*
X130095000Y-67730714D01*
X130323571Y-67730714D01*
X130437857Y-67778333D01*
X95622142Y-93797380D02*
X95622142Y-92797380D01*
X95622142Y-93749761D02*
X95507857Y-93797380D01*
X95279285Y-93797380D01*
X95165000Y-93749761D01*
X95107857Y-93702142D01*
X95050714Y-93606904D01*
X95050714Y-93321190D01*
X95107857Y-93225952D01*
X95165000Y-93178333D01*
X95279285Y-93130714D01*
X95507857Y-93130714D01*
X95622142Y-93178333D01*
X96193571Y-93130714D02*
X96193571Y-94130714D01*
X96193571Y-93178333D02*
X96307857Y-93130714D01*
X96536428Y-93130714D01*
X96650714Y-93178333D01*
X96707857Y-93225952D01*
X96765000Y-93321190D01*
X96765000Y-93606904D01*
X96707857Y-93702142D01*
X96650714Y-93749761D01*
X96536428Y-93797380D01*
X96307857Y-93797380D01*
X96193571Y-93749761D01*
X98707857Y-93749761D02*
X98593571Y-93797380D01*
X98365000Y-93797380D01*
X98250714Y-93749761D01*
X98193571Y-93702142D01*
X98136428Y-93606904D01*
X98136428Y-93321190D01*
X98193571Y-93225952D01*
X98250714Y-93178333D01*
X98365000Y-93130714D01*
X98593571Y-93130714D01*
X98707857Y-93178333D01*
X101050714Y-93416428D02*
X101965000Y-93416428D01*
X101507857Y-93797380D02*
X101507857Y-93035476D01*
X103965000Y-93797380D02*
X103965000Y-92797380D01*
X103965000Y-93749761D02*
X103850714Y-93797380D01*
X103622142Y-93797380D01*
X103507857Y-93749761D01*
X103450714Y-93702142D01*
X103393571Y-93606904D01*
X103393571Y-93321190D01*
X103450714Y-93225952D01*
X103507857Y-93178333D01*
X103622142Y-93130714D01*
X103850714Y-93130714D01*
X103965000Y-93178333D01*
X106822142Y-93749761D02*
X106707857Y-93797380D01*
X106479285Y-93797380D01*
X106365000Y-93749761D01*
X106307857Y-93654523D01*
X106307857Y-93273571D01*
X106365000Y-93178333D01*
X106479285Y-93130714D01*
X106707857Y-93130714D01*
X106822142Y-93178333D01*
X106879285Y-93273571D01*
X106879285Y-93368809D01*
X106307857Y-93464047D01*
X95622142Y-68397380D02*
X95622142Y-67397380D01*
X95622142Y-67778333D02*
X95736428Y-67730714D01*
X95965000Y-67730714D01*
X96079285Y-67778333D01*
X96136428Y-67825952D01*
X96193571Y-67921190D01*
X96193571Y-68206904D01*
X96136428Y-68302142D01*
X96079285Y-68349761D01*
X95965000Y-68397380D01*
X95736428Y-68397380D01*
X95622142Y-68349761D01*
X99050714Y-68397380D02*
X99050714Y-67873571D01*
X98993571Y-67778333D01*
X98879285Y-67730714D01*
X98650714Y-67730714D01*
X98536428Y-67778333D01*
X99050714Y-68349761D02*
X98936428Y-68397380D01*
X98650714Y-68397380D01*
X98536428Y-68349761D01*
X98479285Y-68254523D01*
X98479285Y-68159285D01*
X98536428Y-68064047D01*
X98650714Y-68016428D01*
X98936428Y-68016428D01*
X99050714Y-67968809D01*
X103107857Y-67730714D02*
X103565000Y-67730714D01*
X103279285Y-68397380D02*
X103279285Y-67540238D01*
X103336428Y-67445000D01*
X103450714Y-67397380D01*
X103565000Y-67397380D01*
X106307857Y-67730714D02*
X106307857Y-68540238D01*
X106250714Y-68635476D01*
X106193571Y-68683095D01*
X106079285Y-68730714D01*
X105907857Y-68730714D01*
X105793571Y-68683095D01*
X106307857Y-68349761D02*
X106193571Y-68397380D01*
X105965000Y-68397380D01*
X105850714Y-68349761D01*
X105793571Y-68302142D01*
X105736428Y-68206904D01*
X105736428Y-67921190D01*
X105793571Y-67825952D01*
X105850714Y-67778333D01*
X105965000Y-67730714D01*
X106193571Y-67730714D01*
X106307857Y-67778333D01*
X107180476Y-51617619D02*
X107228095Y-51570000D01*
X107323333Y-51522380D01*
X107561428Y-51522380D01*
X107656666Y-51570000D01*
X107704285Y-51617619D01*
X107751904Y-51712857D01*
X107751904Y-51808095D01*
X107704285Y-51950952D01*
X107132857Y-52522380D01*
X107751904Y-52522380D01*
X108085238Y-51522380D02*
X108704285Y-51522380D01*
X108370952Y-51903333D01*
X108513809Y-51903333D01*
X108609047Y-51950952D01*
X108656666Y-51998571D01*
X108704285Y-52093809D01*
X108704285Y-52331904D01*
X108656666Y-52427142D01*
X108609047Y-52474761D01*
X108513809Y-52522380D01*
X108228095Y-52522380D01*
X108132857Y-52474761D01*
X108085238Y-52427142D01*
X109323333Y-51522380D02*
X109418571Y-51522380D01*
X109513809Y-51570000D01*
X109561428Y-51617619D01*
X109609047Y-51712857D01*
X109656666Y-51903333D01*
X109656666Y-52141428D01*
X109609047Y-52331904D01*
X109561428Y-52427142D01*
X109513809Y-52474761D01*
X109418571Y-52522380D01*
X109323333Y-52522380D01*
X109228095Y-52474761D01*
X109180476Y-52427142D01*
X109132857Y-52331904D01*
X109085238Y-52141428D01*
X109085238Y-51903333D01*
X109132857Y-51712857D01*
X109180476Y-51617619D01*
X109228095Y-51570000D01*
X109323333Y-51522380D01*
X110704285Y-51522380D02*
X111037619Y-52522380D01*
X111370952Y-51522380D01*
X112894761Y-52522380D02*
X112894761Y-51998571D01*
X112847142Y-51903333D01*
X112751904Y-51855714D01*
X112561428Y-51855714D01*
X112466190Y-51903333D01*
X112894761Y-52474761D02*
X112799523Y-52522380D01*
X112561428Y-52522380D01*
X112466190Y-52474761D01*
X112418571Y-52379523D01*
X112418571Y-52284285D01*
X112466190Y-52189047D01*
X112561428Y-52141428D01*
X112799523Y-52141428D01*
X112894761Y-52093809D01*
X113799523Y-52474761D02*
X113704285Y-52522380D01*
X113513809Y-52522380D01*
X113418571Y-52474761D01*
X113370952Y-52427142D01*
X113323333Y-52331904D01*
X113323333Y-52046190D01*
X113370952Y-51950952D01*
X113418571Y-51903333D01*
X113513809Y-51855714D01*
X113704285Y-51855714D01*
X113799523Y-51903333D01*
X110863095Y-54046428D02*
X110910714Y-53998809D01*
X111005952Y-53951190D01*
X111196428Y-54046428D01*
X111291666Y-53998809D01*
X111339285Y-53951190D01*
X110863095Y-49601428D02*
X110910714Y-49553809D01*
X111005952Y-49506190D01*
X111196428Y-49601428D01*
X111291666Y-49553809D01*
X111339285Y-49506190D01*
X129944761Y-38750714D02*
X129992380Y-38607857D01*
X129992380Y-38369761D01*
X129944761Y-38274523D01*
X129897142Y-38226904D01*
X129801904Y-38179285D01*
X129706666Y-38179285D01*
X129611428Y-38226904D01*
X129563809Y-38274523D01*
X129516190Y-38369761D01*
X129468571Y-38560238D01*
X129420952Y-38655476D01*
X129373333Y-38703095D01*
X129278095Y-38750714D01*
X129182857Y-38750714D01*
X129087619Y-38703095D01*
X129040000Y-38655476D01*
X128992380Y-38560238D01*
X128992380Y-38322142D01*
X129040000Y-38179285D01*
X129992380Y-37750714D02*
X128992380Y-37750714D01*
X128992380Y-37369761D01*
X129040000Y-37274523D01*
X129087619Y-37226904D01*
X129182857Y-37179285D01*
X129325714Y-37179285D01*
X129420952Y-37226904D01*
X129468571Y-37274523D01*
X129516190Y-37369761D01*
X129516190Y-37750714D01*
X129992380Y-36750714D02*
X128992380Y-36750714D01*
X129992380Y-36179285D02*
X129420952Y-36607857D01*
X128992380Y-36179285D02*
X129563809Y-36750714D01*
X118557142Y-57752380D02*
X118080952Y-57752380D01*
X118033333Y-58228571D01*
X118080952Y-58180952D01*
X118176190Y-58133333D01*
X118414285Y-58133333D01*
X118509523Y-58180952D01*
X118557142Y-58228571D01*
X118604761Y-58323809D01*
X118604761Y-58561904D01*
X118557142Y-58657142D01*
X118509523Y-58704761D01*
X118414285Y-58752380D01*
X118176190Y-58752380D01*
X118080952Y-58704761D01*
X118033333Y-58657142D01*
X118890476Y-57752380D02*
X119223809Y-58752380D01*
X119557142Y-57752380D01*
X120557142Y-57752380D02*
X121176190Y-57752380D01*
X120842857Y-58133333D01*
X120985714Y-58133333D01*
X121080952Y-58180952D01*
X121128571Y-58228571D01*
X121176190Y-58323809D01*
X121176190Y-58561904D01*
X121128571Y-58657142D01*
X121080952Y-58704761D01*
X120985714Y-58752380D01*
X120700000Y-58752380D01*
X120604761Y-58704761D01*
X120557142Y-58657142D01*
X121509523Y-57752380D02*
X121747619Y-58752380D01*
X121938095Y-58038095D01*
X122128571Y-58752380D01*
X122366666Y-57752380D01*
X124271428Y-58752380D02*
X124271428Y-57752380D01*
X124271428Y-58228571D02*
X124842857Y-58228571D01*
X124842857Y-58752380D02*
X124842857Y-57752380D01*
X125319047Y-58752380D02*
X125319047Y-58085714D01*
X125319047Y-57752380D02*
X125271428Y-57800000D01*
X125319047Y-57847619D01*
X125366666Y-57800000D01*
X125319047Y-57752380D01*
X125319047Y-57847619D01*
X125795238Y-58371428D02*
X126557142Y-58371428D01*
X127509523Y-58752380D02*
X127033333Y-58752380D01*
X127033333Y-57752380D01*
X127842857Y-58752380D02*
X127842857Y-58085714D01*
X127842857Y-57752380D02*
X127795238Y-57800000D01*
X127842857Y-57847619D01*
X127890476Y-57800000D01*
X127842857Y-57752380D01*
X127842857Y-57847619D01*
X128319047Y-58085714D02*
X128319047Y-58752380D01*
X128319047Y-58180952D02*
X128366666Y-58133333D01*
X128461904Y-58085714D01*
X128604761Y-58085714D01*
X128700000Y-58133333D01*
X128747619Y-58228571D01*
X128747619Y-58752380D01*
X129223809Y-58752380D02*
X129223809Y-57752380D01*
X129319047Y-58371428D02*
X129604761Y-58752380D01*
X129604761Y-58085714D02*
X129223809Y-58466666D01*
X99989285Y-98877380D02*
X99989285Y-97877380D01*
X100227380Y-97877380D01*
X100370238Y-97925000D01*
X100465476Y-98020238D01*
X100513095Y-98115476D01*
X100560714Y-98305952D01*
X100560714Y-98448809D01*
X100513095Y-98639285D01*
X100465476Y-98734523D01*
X100370238Y-98829761D01*
X100227380Y-98877380D01*
X99989285Y-98877380D01*
X100941666Y-98829761D02*
X101084523Y-98877380D01*
X101322619Y-98877380D01*
X101417857Y-98829761D01*
X101465476Y-98782142D01*
X101513095Y-98686904D01*
X101513095Y-98591666D01*
X101465476Y-98496428D01*
X101417857Y-98448809D01*
X101322619Y-98401190D01*
X101132142Y-98353571D01*
X101036904Y-98305952D01*
X100989285Y-98258333D01*
X100941666Y-98163095D01*
X100941666Y-98067857D01*
X100989285Y-97972619D01*
X101036904Y-97925000D01*
X101132142Y-97877380D01*
X101370238Y-97877380D01*
X101513095Y-97925000D01*
X102608333Y-97877380D02*
X103227380Y-97877380D01*
X102894047Y-98258333D01*
X103036904Y-98258333D01*
X103132142Y-98305952D01*
X103179761Y-98353571D01*
X103227380Y-98448809D01*
X103227380Y-98686904D01*
X103179761Y-98782142D01*
X103132142Y-98829761D01*
X103036904Y-98877380D01*
X102751190Y-98877380D01*
X102655952Y-98829761D01*
X102608333Y-98782142D01*
X103608333Y-97972619D02*
X103655952Y-97925000D01*
X103751190Y-97877380D01*
X103989285Y-97877380D01*
X104084523Y-97925000D01*
X104132142Y-97972619D01*
X104179761Y-98067857D01*
X104179761Y-98163095D01*
X104132142Y-98305952D01*
X103560714Y-98877380D01*
X104179761Y-98877380D01*
X104513095Y-97877380D02*
X105132142Y-97877380D01*
X104798809Y-98258333D01*
X104941666Y-98258333D01*
X105036904Y-98305952D01*
X105084523Y-98353571D01*
X105132142Y-98448809D01*
X105132142Y-98686904D01*
X105084523Y-98782142D01*
X105036904Y-98829761D01*
X104941666Y-98877380D01*
X104655952Y-98877380D01*
X104560714Y-98829761D01*
X104513095Y-98782142D01*
X106084523Y-98877380D02*
X105513095Y-98877380D01*
X105798809Y-98877380D02*
X105798809Y-97877380D01*
X105703571Y-98020238D01*
X105608333Y-98115476D01*
X105513095Y-98163095D01*
X107846428Y-98877380D02*
X107513095Y-98401190D01*
X107275000Y-98877380D02*
X107275000Y-97877380D01*
X107655952Y-97877380D01*
X107751190Y-97925000D01*
X107798809Y-97972619D01*
X107846428Y-98067857D01*
X107846428Y-98210714D01*
X107798809Y-98305952D01*
X107751190Y-98353571D01*
X107655952Y-98401190D01*
X107275000Y-98401190D01*
X108132142Y-97877380D02*
X108703571Y-97877380D01*
X108417857Y-98877380D02*
X108417857Y-97877380D01*
X109608333Y-98782142D02*
X109560714Y-98829761D01*
X109417857Y-98877380D01*
X109322619Y-98877380D01*
X109179761Y-98829761D01*
X109084523Y-98734523D01*
X109036904Y-98639285D01*
X108989285Y-98448809D01*
X108989285Y-98305952D01*
X109036904Y-98115476D01*
X109084523Y-98020238D01*
X109179761Y-97925000D01*
X109322619Y-97877380D01*
X109417857Y-97877380D01*
X109560714Y-97925000D01*
X109608333Y-97972619D01*
X149019285Y-42997380D02*
X149019285Y-41997380D01*
X149257380Y-41997380D01*
X149400238Y-42045000D01*
X149495476Y-42140238D01*
X149543095Y-42235476D01*
X149590714Y-42425952D01*
X149590714Y-42568809D01*
X149543095Y-42759285D01*
X149495476Y-42854523D01*
X149400238Y-42949761D01*
X149257380Y-42997380D01*
X149019285Y-42997380D01*
X150352619Y-42473571D02*
X150019285Y-42473571D01*
X150019285Y-42997380D02*
X150019285Y-41997380D01*
X150495476Y-41997380D01*
X151638333Y-42997380D02*
X151638333Y-41997380D01*
X152019285Y-41997380D01*
X152114523Y-42045000D01*
X152162142Y-42092619D01*
X152209761Y-42187857D01*
X152209761Y-42330714D01*
X152162142Y-42425952D01*
X152114523Y-42473571D01*
X152019285Y-42521190D01*
X151638333Y-42521190D01*
X152781190Y-42997380D02*
X152685952Y-42949761D01*
X152638333Y-42854523D01*
X152638333Y-41997380D01*
X153590714Y-42997380D02*
X153590714Y-42473571D01*
X153543095Y-42378333D01*
X153447857Y-42330714D01*
X153257380Y-42330714D01*
X153162142Y-42378333D01*
X153590714Y-42949761D02*
X153495476Y-42997380D01*
X153257380Y-42997380D01*
X153162142Y-42949761D01*
X153114523Y-42854523D01*
X153114523Y-42759285D01*
X153162142Y-42664047D01*
X153257380Y-42616428D01*
X153495476Y-42616428D01*
X153590714Y-42568809D01*
X153971666Y-42330714D02*
X154209761Y-42997380D01*
X154447857Y-42330714D02*
X154209761Y-42997380D01*
X154114523Y-43235476D01*
X154066904Y-43283095D01*
X153971666Y-43330714D01*
X155209761Y-42949761D02*
X155114523Y-42997380D01*
X154924047Y-42997380D01*
X154828809Y-42949761D01*
X154781190Y-42854523D01*
X154781190Y-42473571D01*
X154828809Y-42378333D01*
X154924047Y-42330714D01*
X155114523Y-42330714D01*
X155209761Y-42378333D01*
X155257380Y-42473571D01*
X155257380Y-42568809D01*
X154781190Y-42664047D01*
X155685952Y-42997380D02*
X155685952Y-42330714D01*
X155685952Y-42521190D02*
X155733571Y-42425952D01*
X155781190Y-42378333D01*
X155876428Y-42330714D01*
X155971666Y-42330714D01*
X157066904Y-42997380D02*
X157066904Y-41997380D01*
X157400238Y-42711666D01*
X157733571Y-41997380D01*
X157733571Y-42997380D01*
X158209761Y-42997380D02*
X158209761Y-42330714D01*
X158209761Y-41997380D02*
X158162142Y-42045000D01*
X158209761Y-42092619D01*
X158257380Y-42045000D01*
X158209761Y-41997380D01*
X158209761Y-42092619D01*
X158685952Y-42330714D02*
X158685952Y-42997380D01*
X158685952Y-42425952D02*
X158733571Y-42378333D01*
X158828809Y-42330714D01*
X158971666Y-42330714D01*
X159066904Y-42378333D01*
X159114523Y-42473571D01*
X159114523Y-42997380D01*
X159590714Y-42997380D02*
X159590714Y-42330714D01*
X159590714Y-41997380D02*
X159543095Y-42045000D01*
X159590714Y-42092619D01*
X159638333Y-42045000D01*
X159590714Y-41997380D01*
X159590714Y-42092619D01*
X136112857Y-108116666D02*
X136589047Y-108116666D01*
X136017619Y-108402380D02*
X136350952Y-107402380D01*
X136684285Y-108402380D01*
X137017619Y-108402380D02*
X137017619Y-107735714D01*
X137017619Y-107926190D02*
X137065238Y-107830952D01*
X137112857Y-107783333D01*
X137208095Y-107735714D01*
X137303333Y-107735714D01*
X138065238Y-108402380D02*
X138065238Y-107402380D01*
X138065238Y-108354761D02*
X137970000Y-108402380D01*
X137779523Y-108402380D01*
X137684285Y-108354761D01*
X137636666Y-108307142D01*
X137589047Y-108211904D01*
X137589047Y-107926190D01*
X137636666Y-107830952D01*
X137684285Y-107783333D01*
X137779523Y-107735714D01*
X137970000Y-107735714D01*
X138065238Y-107783333D01*
X138970000Y-107735714D02*
X138970000Y-108402380D01*
X138541428Y-107735714D02*
X138541428Y-108259523D01*
X138589047Y-108354761D01*
X138684285Y-108402380D01*
X138827142Y-108402380D01*
X138922380Y-108354761D01*
X138970000Y-108307142D01*
X139446190Y-108402380D02*
X139446190Y-107735714D01*
X139446190Y-107402380D02*
X139398571Y-107450000D01*
X139446190Y-107497619D01*
X139493809Y-107450000D01*
X139446190Y-107402380D01*
X139446190Y-107497619D01*
X139922380Y-107735714D02*
X139922380Y-108402380D01*
X139922380Y-107830952D02*
X139970000Y-107783333D01*
X140065238Y-107735714D01*
X140208095Y-107735714D01*
X140303333Y-107783333D01*
X140350952Y-107878571D01*
X140350952Y-108402380D01*
X140970000Y-108402380D02*
X140874761Y-108354761D01*
X140827142Y-108307142D01*
X140779523Y-108211904D01*
X140779523Y-107926190D01*
X140827142Y-107830952D01*
X140874761Y-107783333D01*
X140970000Y-107735714D01*
X141112857Y-107735714D01*
X141208095Y-107783333D01*
X141255714Y-107830952D01*
X141303333Y-107926190D01*
X141303333Y-108211904D01*
X141255714Y-108307142D01*
X141208095Y-108354761D01*
X141112857Y-108402380D01*
X140970000Y-108402380D01*
X142493809Y-108402380D02*
X142493809Y-107402380D01*
X143065238Y-108402380D01*
X143065238Y-107402380D01*
X143970000Y-108402380D02*
X143970000Y-107878571D01*
X143922380Y-107783333D01*
X143827142Y-107735714D01*
X143636666Y-107735714D01*
X143541428Y-107783333D01*
X143970000Y-108354761D02*
X143874761Y-108402380D01*
X143636666Y-108402380D01*
X143541428Y-108354761D01*
X143493809Y-108259523D01*
X143493809Y-108164285D01*
X143541428Y-108069047D01*
X143636666Y-108021428D01*
X143874761Y-108021428D01*
X143970000Y-107973809D01*
X144446190Y-107735714D02*
X144446190Y-108402380D01*
X144446190Y-107830952D02*
X144493809Y-107783333D01*
X144589047Y-107735714D01*
X144731904Y-107735714D01*
X144827142Y-107783333D01*
X144874761Y-107878571D01*
X144874761Y-108402380D01*
X145493809Y-108402380D02*
X145398571Y-108354761D01*
X145350952Y-108307142D01*
X145303333Y-108211904D01*
X145303333Y-107926190D01*
X145350952Y-107830952D01*
X145398571Y-107783333D01*
X145493809Y-107735714D01*
X145636666Y-107735714D01*
X145731904Y-107783333D01*
X145779523Y-107830952D01*
X145827142Y-107926190D01*
X145827142Y-108211904D01*
X145779523Y-108307142D01*
X145731904Y-108354761D01*
X145636666Y-108402380D01*
X145493809Y-108402380D01*
X101957380Y-46426428D02*
X102005000Y-46378809D01*
X102100238Y-46331190D01*
X102290714Y-46426428D01*
X102385952Y-46378809D01*
X102433571Y-46331190D01*
X102766904Y-46521666D02*
X103243095Y-46521666D01*
X102671666Y-46807380D02*
X103005000Y-45807380D01*
X103338333Y-46807380D01*
X104243095Y-46712142D02*
X104195476Y-46759761D01*
X104052619Y-46807380D01*
X103957380Y-46807380D01*
X103814523Y-46759761D01*
X103719285Y-46664523D01*
X103671666Y-46569285D01*
X103624047Y-46378809D01*
X103624047Y-46235952D01*
X103671666Y-46045476D01*
X103719285Y-45950238D01*
X103814523Y-45855000D01*
X103957380Y-45807380D01*
X104052619Y-45807380D01*
X104195476Y-45855000D01*
X104243095Y-45902619D01*
X104528809Y-46426428D02*
X104576428Y-46378809D01*
X104671666Y-46331190D01*
X104862142Y-46426428D01*
X104957380Y-46378809D01*
X105005000Y-46331190D01*
X135239285Y-32789761D02*
X135382142Y-32837380D01*
X135620238Y-32837380D01*
X135715476Y-32789761D01*
X135763095Y-32742142D01*
X135810714Y-32646904D01*
X135810714Y-32551666D01*
X135763095Y-32456428D01*
X135715476Y-32408809D01*
X135620238Y-32361190D01*
X135429761Y-32313571D01*
X135334523Y-32265952D01*
X135286904Y-32218333D01*
X135239285Y-32123095D01*
X135239285Y-32027857D01*
X135286904Y-31932619D01*
X135334523Y-31885000D01*
X135429761Y-31837380D01*
X135667857Y-31837380D01*
X135810714Y-31885000D01*
X136239285Y-32837380D02*
X136239285Y-31837380D01*
X136620238Y-31837380D01*
X136715476Y-31885000D01*
X136763095Y-31932619D01*
X136810714Y-32027857D01*
X136810714Y-32170714D01*
X136763095Y-32265952D01*
X136715476Y-32313571D01*
X136620238Y-32361190D01*
X136239285Y-32361190D01*
X137239285Y-32837380D02*
X137239285Y-31837380D01*
X137810714Y-32837380D02*
X137382142Y-32265952D01*
X137810714Y-31837380D02*
X137239285Y-32408809D01*
X97226428Y-54887619D02*
X97178809Y-54840000D01*
X97131190Y-54744761D01*
X97226428Y-54554285D01*
X97178809Y-54459047D01*
X97131190Y-54411428D01*
X97321666Y-54078095D02*
X97321666Y-53601904D01*
X97607380Y-54173333D02*
X96607380Y-53840000D01*
X97607380Y-53506666D01*
X97512142Y-52601904D02*
X97559761Y-52649523D01*
X97607380Y-52792380D01*
X97607380Y-52887619D01*
X97559761Y-53030476D01*
X97464523Y-53125714D01*
X97369285Y-53173333D01*
X97178809Y-53220952D01*
X97035952Y-53220952D01*
X96845476Y-53173333D01*
X96750238Y-53125714D01*
X96655000Y-53030476D01*
X96607380Y-52887619D01*
X96607380Y-52792380D01*
X96655000Y-52649523D01*
X96702619Y-52601904D01*
X97226428Y-52316190D02*
X97178809Y-52268571D01*
X97131190Y-52173333D01*
X97226428Y-51982857D01*
X97178809Y-51887619D01*
X97131190Y-51840000D01*
X133167380Y-118213095D02*
X132167380Y-118213095D01*
X132167380Y-117975000D01*
X132215000Y-117832142D01*
X132310238Y-117736904D01*
X132405476Y-117689285D01*
X132595952Y-117641666D01*
X132738809Y-117641666D01*
X132929285Y-117689285D01*
X133024523Y-117736904D01*
X133119761Y-117832142D01*
X133167380Y-117975000D01*
X133167380Y-118213095D01*
X132262619Y-117260714D02*
X132215000Y-117213095D01*
X132167380Y-117117857D01*
X132167380Y-116879761D01*
X132215000Y-116784523D01*
X132262619Y-116736904D01*
X132357857Y-116689285D01*
X132453095Y-116689285D01*
X132595952Y-116736904D01*
X133167380Y-117308333D01*
X133167380Y-116689285D01*
X155027380Y-99291666D02*
X155027380Y-98858333D01*
X155408333Y-99091666D01*
X155408333Y-98991666D01*
X155455952Y-98925000D01*
X155503571Y-98891666D01*
X155598809Y-98858333D01*
X155836904Y-98858333D01*
X155932142Y-98891666D01*
X155979761Y-98925000D01*
X156027380Y-98991666D01*
X156027380Y-99191666D01*
X155979761Y-99258333D01*
X155932142Y-99291666D01*
X155027380Y-98658333D02*
X156027380Y-98425000D01*
X155027380Y-98191666D01*
X155027380Y-98025000D02*
X155027380Y-97591666D01*
X155408333Y-97825000D01*
X155408333Y-97725000D01*
X155455952Y-97658333D01*
X155503571Y-97625000D01*
X155598809Y-97591666D01*
X155836904Y-97591666D01*
X155932142Y-97625000D01*
X155979761Y-97658333D01*
X156027380Y-97725000D01*
X156027380Y-97925000D01*
X155979761Y-97991666D01*
X155932142Y-98025000D01*
X140739761Y-99275000D02*
X140787380Y-99175000D01*
X140787380Y-99008333D01*
X140739761Y-98941666D01*
X140692142Y-98908333D01*
X140596904Y-98875000D01*
X140501666Y-98875000D01*
X140406428Y-98908333D01*
X140358809Y-98941666D01*
X140311190Y-99008333D01*
X140263571Y-99141666D01*
X140215952Y-99208333D01*
X140168333Y-99241666D01*
X140073095Y-99275000D01*
X139977857Y-99275000D01*
X139882619Y-99241666D01*
X139835000Y-99208333D01*
X139787380Y-99141666D01*
X139787380Y-98975000D01*
X139835000Y-98875000D01*
X140787380Y-98575000D02*
X139787380Y-98575000D01*
X139787380Y-98408333D01*
X139835000Y-98308333D01*
X139930238Y-98241666D01*
X140025476Y-98208333D01*
X140215952Y-98175000D01*
X140358809Y-98175000D01*
X140549285Y-98208333D01*
X140644523Y-98241666D01*
X140739761Y-98308333D01*
X140787380Y-98408333D01*
X140787380Y-98575000D01*
X140501666Y-97908333D02*
X140501666Y-97575000D01*
X140787380Y-97975000D02*
X139787380Y-97741666D01*
X140787380Y-97508333D01*
X138199761Y-99258333D02*
X138247380Y-99158333D01*
X138247380Y-98991666D01*
X138199761Y-98925000D01*
X138152142Y-98891666D01*
X138056904Y-98858333D01*
X137961666Y-98858333D01*
X137866428Y-98891666D01*
X137818809Y-98925000D01*
X137771190Y-98991666D01*
X137723571Y-99125000D01*
X137675952Y-99191666D01*
X137628333Y-99225000D01*
X137533095Y-99258333D01*
X137437857Y-99258333D01*
X137342619Y-99225000D01*
X137295000Y-99191666D01*
X137247380Y-99125000D01*
X137247380Y-98958333D01*
X137295000Y-98858333D01*
X138152142Y-98158333D02*
X138199761Y-98191666D01*
X138247380Y-98291666D01*
X138247380Y-98358333D01*
X138199761Y-98458333D01*
X138104523Y-98525000D01*
X138009285Y-98558333D01*
X137818809Y-98591666D01*
X137675952Y-98591666D01*
X137485476Y-98558333D01*
X137390238Y-98525000D01*
X137295000Y-98458333D01*
X137247380Y-98358333D01*
X137247380Y-98291666D01*
X137295000Y-98191666D01*
X137342619Y-98158333D01*
X138247380Y-97525000D02*
X138247380Y-97858333D01*
X137247380Y-97858333D01*
X124595000Y-98958333D02*
X124547380Y-99025000D01*
X124547380Y-99125000D01*
X124595000Y-99225000D01*
X124690238Y-99291666D01*
X124785476Y-99325000D01*
X124975952Y-99358333D01*
X125118809Y-99358333D01*
X125309285Y-99325000D01*
X125404523Y-99291666D01*
X125499761Y-99225000D01*
X125547380Y-99125000D01*
X125547380Y-99058333D01*
X125499761Y-98958333D01*
X125452142Y-98925000D01*
X125118809Y-98925000D01*
X125118809Y-99058333D01*
X125547380Y-98625000D02*
X124547380Y-98625000D01*
X125547380Y-98225000D01*
X124547380Y-98225000D01*
X125547380Y-97891666D02*
X124547380Y-97891666D01*
X124547380Y-97725000D01*
X124595000Y-97625000D01*
X124690238Y-97558333D01*
X124785476Y-97525000D01*
X124975952Y-97491666D01*
X125118809Y-97491666D01*
X125309285Y-97525000D01*
X125404523Y-97558333D01*
X125499761Y-97625000D01*
X125547380Y-97725000D01*
X125547380Y-97891666D01*
X129627380Y-98615476D02*
X129627380Y-99091666D01*
X130103571Y-99139285D01*
X130055952Y-99091666D01*
X130008333Y-98996428D01*
X130008333Y-98758333D01*
X130055952Y-98663095D01*
X130103571Y-98615476D01*
X130198809Y-98567857D01*
X130436904Y-98567857D01*
X130532142Y-98615476D01*
X130579761Y-98663095D01*
X130627380Y-98758333D01*
X130627380Y-98996428D01*
X130579761Y-99091666D01*
X130532142Y-99139285D01*
X129627380Y-98282142D02*
X130627380Y-97948809D01*
X129627380Y-97615476D01*
X122007380Y-99448809D02*
X123007380Y-99115476D01*
X122007380Y-98782142D01*
X123007380Y-98448809D02*
X122340714Y-98448809D01*
X122007380Y-98448809D02*
X122055000Y-98496428D01*
X122102619Y-98448809D01*
X122055000Y-98401190D01*
X122007380Y-98448809D01*
X122102619Y-98448809D01*
X122340714Y-97972619D02*
X123007380Y-97972619D01*
X122435952Y-97972619D02*
X122388333Y-97925000D01*
X122340714Y-97829761D01*
X122340714Y-97686904D01*
X122388333Y-97591666D01*
X122483571Y-97544047D01*
X123007380Y-97544047D01*
X158567380Y-99275000D02*
X157567380Y-99275000D01*
X157567380Y-99108333D01*
X157615000Y-99008333D01*
X157710238Y-98941666D01*
X157805476Y-98908333D01*
X157995952Y-98875000D01*
X158138809Y-98875000D01*
X158329285Y-98908333D01*
X158424523Y-98941666D01*
X158519761Y-99008333D01*
X158567380Y-99108333D01*
X158567380Y-99275000D01*
X158567380Y-98208333D02*
X158567380Y-98608333D01*
X158567380Y-98408333D02*
X157567380Y-98408333D01*
X157710238Y-98475000D01*
X157805476Y-98541666D01*
X157853095Y-98608333D01*
X157567380Y-97975000D02*
X157567380Y-97541666D01*
X157948333Y-97775000D01*
X157948333Y-97675000D01*
X157995952Y-97608333D01*
X158043571Y-97575000D01*
X158138809Y-97541666D01*
X158376904Y-97541666D01*
X158472142Y-97575000D01*
X158519761Y-97608333D01*
X158567380Y-97675000D01*
X158567380Y-97875000D01*
X158519761Y-97941666D01*
X158472142Y-97975000D01*
X158567380Y-119324285D02*
X157567380Y-119324285D01*
X157567380Y-119086190D01*
X157615000Y-118943333D01*
X157710238Y-118848095D01*
X157805476Y-118800476D01*
X157995952Y-118752857D01*
X158138809Y-118752857D01*
X158329285Y-118800476D01*
X158424523Y-118848095D01*
X158519761Y-118943333D01*
X158567380Y-119086190D01*
X158567380Y-119324285D01*
X158567380Y-117800476D02*
X158567380Y-118371904D01*
X158567380Y-118086190D02*
X157567380Y-118086190D01*
X157710238Y-118181428D01*
X157805476Y-118276666D01*
X157853095Y-118371904D01*
X157662619Y-117419523D02*
X157615000Y-117371904D01*
X157567380Y-117276666D01*
X157567380Y-117038571D01*
X157615000Y-116943333D01*
X157662619Y-116895714D01*
X157757857Y-116848095D01*
X157853095Y-116848095D01*
X157995952Y-116895714D01*
X158567380Y-117467142D01*
X158567380Y-116848095D01*
X121864523Y-116927380D02*
X122435952Y-116927380D01*
X122150238Y-117927380D02*
X122150238Y-116927380D01*
X122674047Y-117927380D02*
X123197857Y-117260714D01*
X122674047Y-117260714D02*
X123197857Y-117927380D01*
X177252380Y-48656666D02*
X178252380Y-48323333D01*
X177252380Y-47990000D01*
X178252380Y-47513809D02*
X178204761Y-47609047D01*
X178157142Y-47656666D01*
X178061904Y-47704285D01*
X177776190Y-47704285D01*
X177680952Y-47656666D01*
X177633333Y-47609047D01*
X177585714Y-47513809D01*
X177585714Y-47370952D01*
X177633333Y-47275714D01*
X177680952Y-47228095D01*
X177776190Y-47180476D01*
X178061904Y-47180476D01*
X178157142Y-47228095D01*
X178204761Y-47275714D01*
X178252380Y-47370952D01*
X178252380Y-47513809D01*
X178252380Y-46609047D02*
X178204761Y-46704285D01*
X178109523Y-46751904D01*
X177252380Y-46751904D01*
X177871428Y-46228095D02*
X177871428Y-45466190D01*
X178252380Y-45847142D02*
X177490476Y-45847142D01*
X177252380Y-58816666D02*
X178252380Y-58483333D01*
X177252380Y-58150000D01*
X178252380Y-57673809D02*
X178204761Y-57769047D01*
X178157142Y-57816666D01*
X178061904Y-57864285D01*
X177776190Y-57864285D01*
X177680952Y-57816666D01*
X177633333Y-57769047D01*
X177585714Y-57673809D01*
X177585714Y-57530952D01*
X177633333Y-57435714D01*
X177680952Y-57388095D01*
X177776190Y-57340476D01*
X178061904Y-57340476D01*
X178157142Y-57388095D01*
X178204761Y-57435714D01*
X178252380Y-57530952D01*
X178252380Y-57673809D01*
X178252380Y-56769047D02*
X178204761Y-56864285D01*
X178109523Y-56911904D01*
X177252380Y-56911904D01*
X177871428Y-56388095D02*
X177871428Y-55626190D01*
X155200860Y-36220203D02*
X155200860Y-35648774D01*
X156200860Y-35934488D02*
X155200860Y-35934488D01*
X156200860Y-35315441D02*
X155534194Y-35315441D01*
X155724670Y-35315441D02*
X155629432Y-35267822D01*
X155581813Y-35220203D01*
X155534194Y-35124964D01*
X155534194Y-35029726D01*
X155534194Y-34267822D02*
X156343718Y-34267822D01*
X156438956Y-34315441D01*
X156486575Y-34363060D01*
X156534194Y-34458298D01*
X156534194Y-34601155D01*
X156486575Y-34696393D01*
X156153241Y-34267822D02*
X156200860Y-34363060D01*
X156200860Y-34553536D01*
X156153241Y-34648774D01*
X156105622Y-34696393D01*
X156010384Y-34744012D01*
X155724670Y-34744012D01*
X155629432Y-34696393D01*
X155581813Y-34648774D01*
X155534194Y-34553536D01*
X155534194Y-34363060D01*
X155581813Y-34267822D01*
X157740860Y-36759964D02*
X158740860Y-36426631D01*
X157740860Y-36093298D01*
X158359908Y-35759964D02*
X158359908Y-34998060D01*
X158740860Y-35379012D02*
X157978956Y-35379012D01*
X162185860Y-36759964D02*
X163185860Y-36426631D01*
X162185860Y-36093298D01*
X162804908Y-35759964D02*
X162804908Y-34998060D01*
X160328480Y-35934488D02*
X160280860Y-36029726D01*
X160280860Y-36172584D01*
X160328480Y-36315441D01*
X160423718Y-36410679D01*
X160518956Y-36458298D01*
X160709432Y-36505917D01*
X160852289Y-36505917D01*
X161042765Y-36458298D01*
X161138003Y-36410679D01*
X161233241Y-36315441D01*
X161280860Y-36172584D01*
X161280860Y-36077345D01*
X161233241Y-35934488D01*
X161185622Y-35886869D01*
X160852289Y-35886869D01*
X160852289Y-36077345D01*
X161280860Y-35458298D02*
X160280860Y-35458298D01*
X161280860Y-34886869D01*
X160280860Y-34886869D01*
X161280860Y-34410679D02*
X160280860Y-34410679D01*
X160280860Y-34172584D01*
X160328480Y-34029726D01*
X160423718Y-33934488D01*
X160518956Y-33886869D01*
X160709432Y-33839250D01*
X160852289Y-33839250D01*
X161042765Y-33886869D01*
X161138003Y-33934488D01*
X161233241Y-34029726D01*
X161280860Y-34172584D01*
X161280860Y-34410679D01*
X160155000Y-63626904D02*
X160107380Y-63722142D01*
X160107380Y-63865000D01*
X160155000Y-64007857D01*
X160250238Y-64103095D01*
X160345476Y-64150714D01*
X160535952Y-64198333D01*
X160678809Y-64198333D01*
X160869285Y-64150714D01*
X160964523Y-64103095D01*
X161059761Y-64007857D01*
X161107380Y-63865000D01*
X161107380Y-63769761D01*
X161059761Y-63626904D01*
X161012142Y-63579285D01*
X160678809Y-63579285D01*
X160678809Y-63769761D01*
X161107380Y-63150714D02*
X160107380Y-63150714D01*
X161107380Y-62579285D01*
X160107380Y-62579285D01*
X161107380Y-62103095D02*
X160107380Y-62103095D01*
X160107380Y-61865000D01*
X160155000Y-61722142D01*
X160250238Y-61626904D01*
X160345476Y-61579285D01*
X160535952Y-61531666D01*
X160678809Y-61531666D01*
X160869285Y-61579285D01*
X160964523Y-61626904D01*
X161059761Y-61722142D01*
X161107380Y-61865000D01*
X161107380Y-62103095D01*
X163599761Y-64126904D02*
X163647380Y-63984047D01*
X163647380Y-63745952D01*
X163599761Y-63650714D01*
X163552142Y-63603095D01*
X163456904Y-63555476D01*
X163361666Y-63555476D01*
X163266428Y-63603095D01*
X163218809Y-63650714D01*
X163171190Y-63745952D01*
X163123571Y-63936428D01*
X163075952Y-64031666D01*
X163028333Y-64079285D01*
X162933095Y-64126904D01*
X162837857Y-64126904D01*
X162742619Y-64079285D01*
X162695000Y-64031666D01*
X162647380Y-63936428D01*
X162647380Y-63698333D01*
X162695000Y-63555476D01*
X163647380Y-63126904D02*
X162647380Y-63126904D01*
X162647380Y-62745952D01*
X162695000Y-62650714D01*
X162742619Y-62603095D01*
X162837857Y-62555476D01*
X162980714Y-62555476D01*
X163075952Y-62603095D01*
X163123571Y-62650714D01*
X163171190Y-62745952D01*
X163171190Y-63126904D01*
X162742619Y-62174523D02*
X162695000Y-62126904D01*
X162647380Y-62031666D01*
X162647380Y-61793571D01*
X162695000Y-61698333D01*
X162742619Y-61650714D01*
X162837857Y-61603095D01*
X162933095Y-61603095D01*
X163075952Y-61650714D01*
X163647380Y-62222142D01*
X163647380Y-61603095D01*
X158519761Y-64126904D02*
X158567380Y-63984047D01*
X158567380Y-63745952D01*
X158519761Y-63650714D01*
X158472142Y-63603095D01*
X158376904Y-63555476D01*
X158281666Y-63555476D01*
X158186428Y-63603095D01*
X158138809Y-63650714D01*
X158091190Y-63745952D01*
X158043571Y-63936428D01*
X157995952Y-64031666D01*
X157948333Y-64079285D01*
X157853095Y-64126904D01*
X157757857Y-64126904D01*
X157662619Y-64079285D01*
X157615000Y-64031666D01*
X157567380Y-63936428D01*
X157567380Y-63698333D01*
X157615000Y-63555476D01*
X158567380Y-63126904D02*
X157567380Y-63126904D01*
X157567380Y-62745952D01*
X157615000Y-62650714D01*
X157662619Y-62603095D01*
X157757857Y-62555476D01*
X157900714Y-62555476D01*
X157995952Y-62603095D01*
X158043571Y-62650714D01*
X158091190Y-62745952D01*
X158091190Y-63126904D01*
X158567380Y-61603095D02*
X158567380Y-62174523D01*
X158567380Y-61888809D02*
X157567380Y-61888809D01*
X157710238Y-61984047D01*
X157805476Y-62079285D01*
X157853095Y-62174523D01*
X144867380Y-64055476D02*
X145867380Y-63722142D01*
X144867380Y-63388809D01*
X145819761Y-62626904D02*
X145867380Y-62722142D01*
X145867380Y-62912619D01*
X145819761Y-63007857D01*
X145772142Y-63055476D01*
X145676904Y-63103095D01*
X145391190Y-63103095D01*
X145295952Y-63055476D01*
X145248333Y-63007857D01*
X145200714Y-62912619D01*
X145200714Y-62722142D01*
X145248333Y-62626904D01*
X145819761Y-61769761D02*
X145867380Y-61865000D01*
X145867380Y-62055476D01*
X145819761Y-62150714D01*
X145772142Y-62198333D01*
X145676904Y-62245952D01*
X145391190Y-62245952D01*
X145295952Y-62198333D01*
X145248333Y-62150714D01*
X145200714Y-62055476D01*
X145200714Y-61865000D01*
X145248333Y-61769761D01*
X139954047Y-59761428D02*
X140715952Y-59761428D01*
X140335000Y-60142380D02*
X140335000Y-59380476D01*
X139954047Y-44521428D02*
X140715952Y-44521428D01*
D10*
X123265551Y-88192460D02*
X123265551Y-85532460D01*
X105425551Y-88192460D02*
X123265551Y-88192460D01*
X105425551Y-85532460D02*
X123265551Y-85532460D01*
X105425551Y-88192460D02*
X105425551Y-85532460D01*
X104155551Y-88192460D02*
X102825551Y-88192460D01*
X102825551Y-88192460D02*
X102825551Y-86862460D01*
X102810871Y-75445418D02*
X102810871Y-74115418D01*
X104140871Y-75445418D02*
X102810871Y-75445418D01*
X105410871Y-75445418D02*
X105410871Y-72785418D01*
X105410871Y-72785418D02*
X123250871Y-72785418D01*
X105410871Y-75445418D02*
X123250871Y-75445418D01*
X123250871Y-75445418D02*
X123250871Y-72785418D01*
X113050000Y-108320000D02*
X113050000Y-107550000D01*
X113050000Y-100240000D02*
X113050000Y-101010000D01*
X114420000Y-107550000D02*
X114420000Y-101010000D01*
X111680000Y-107550000D02*
X114420000Y-107550000D01*
X111680000Y-101010000D02*
X111680000Y-107550000D01*
X114420000Y-101010000D02*
X111680000Y-101010000D01*
X117100000Y-108320000D02*
X117100000Y-107550000D01*
X117100000Y-100240000D02*
X117100000Y-101010000D01*
X118470000Y-107550000D02*
X118470000Y-101010000D01*
X115730000Y-107550000D02*
X118470000Y-107550000D01*
X115730000Y-101010000D02*
X115730000Y-107550000D01*
X118470000Y-101010000D02*
X115730000Y-101010000D01*
X102807827Y-70410705D02*
X102807827Y-69080705D01*
X104137827Y-70410705D02*
X102807827Y-70410705D01*
X105407827Y-70410705D02*
X105407827Y-67750705D01*
X105407827Y-67750705D02*
X123247827Y-67750705D01*
X105407827Y-70410705D02*
X123247827Y-70410705D01*
X123247827Y-70410705D02*
X123247827Y-67750705D01*
X102810000Y-93405000D02*
X102810000Y-92075000D01*
X104140000Y-93405000D02*
X102810000Y-93405000D01*
X105410000Y-93405000D02*
X105410000Y-90745000D01*
X105410000Y-90745000D02*
X123250000Y-90745000D01*
X105410000Y-93405000D02*
X123250000Y-93405000D01*
X123250000Y-93405000D02*
X123250000Y-90745000D01*
X115575000Y-63630000D02*
X93975000Y-63630000D01*
X93975000Y-63630000D02*
X93975000Y-101930000D01*
X93975000Y-101930000D02*
X115575000Y-101930000D01*
X115575000Y-101930000D02*
X115575000Y-63630000D01*
X146590000Y-32285000D02*
X146590000Y-35025000D01*
X146590000Y-35025000D02*
X153130000Y-35025000D01*
X153130000Y-35025000D02*
X153130000Y-32285000D01*
X153130000Y-32285000D02*
X146590000Y-32285000D01*
X145820000Y-33655000D02*
X146590000Y-33655000D01*
X153900000Y-33655000D02*
X153130000Y-33655000D01*
X146050000Y-84860000D02*
X146050000Y-85630000D01*
X146050000Y-92940000D02*
X146050000Y-92170000D01*
X144680000Y-85630000D02*
X144680000Y-92170000D01*
X147420000Y-85630000D02*
X144680000Y-85630000D01*
X147420000Y-92170000D02*
X147420000Y-85630000D01*
X144680000Y-92170000D02*
X147420000Y-92170000D01*
X161520000Y-126365000D02*
X160750000Y-126365000D01*
X153440000Y-126365000D02*
X154210000Y-126365000D01*
X160750000Y-124995000D02*
X154210000Y-124995000D01*
X160750000Y-127735000D02*
X160750000Y-124995000D01*
X154210000Y-127735000D02*
X160750000Y-127735000D01*
X154210000Y-124995000D02*
X154210000Y-127735000D01*
X161520000Y-122555000D02*
X160750000Y-122555000D01*
X153440000Y-122555000D02*
X154210000Y-122555000D01*
X160750000Y-121185000D02*
X154210000Y-121185000D01*
X160750000Y-123925000D02*
X160750000Y-121185000D01*
X154210000Y-123925000D02*
X160750000Y-123925000D01*
X154210000Y-121185000D02*
X154210000Y-123925000D01*
X123595000Y-124460000D02*
X124365000Y-124460000D01*
X131675000Y-124460000D02*
X130905000Y-124460000D01*
X124365000Y-125830000D02*
X130905000Y-125830000D01*
X124365000Y-123090000D02*
X124365000Y-125830000D01*
X130905000Y-123090000D02*
X124365000Y-123090000D01*
X130905000Y-125830000D02*
X130905000Y-123090000D01*
X163830000Y-102005000D02*
X163830000Y-102775000D01*
X163830000Y-110085000D02*
X163830000Y-109315000D01*
X162460000Y-102775000D02*
X162460000Y-109315000D01*
X165200000Y-102775000D02*
X162460000Y-102775000D01*
X165200000Y-109315000D02*
X165200000Y-102775000D01*
X162460000Y-109315000D02*
X165200000Y-109315000D01*
X179935000Y-100965000D02*
X179165000Y-100965000D01*
X171855000Y-100965000D02*
X172625000Y-100965000D01*
X179165000Y-99595000D02*
X172625000Y-99595000D01*
X179165000Y-102335000D02*
X179165000Y-99595000D01*
X172625000Y-102335000D02*
X179165000Y-102335000D01*
X172625000Y-99595000D02*
X172625000Y-102335000D01*
X179935000Y-104140000D02*
X179165000Y-104140000D01*
X171855000Y-104140000D02*
X172625000Y-104140000D01*
X179165000Y-102770000D02*
X172625000Y-102770000D01*
X179165000Y-105510000D02*
X179165000Y-102770000D01*
X172625000Y-105510000D02*
X179165000Y-105510000D01*
X172625000Y-102770000D02*
X172625000Y-105510000D01*
X167005000Y-102005000D02*
X167005000Y-102775000D01*
X167005000Y-110085000D02*
X167005000Y-109315000D01*
X165635000Y-102775000D02*
X165635000Y-109315000D01*
X168375000Y-102775000D02*
X165635000Y-102775000D01*
X168375000Y-109315000D02*
X168375000Y-102775000D01*
X165635000Y-109315000D02*
X168375000Y-109315000D01*
X190332518Y-63749816D02*
X190331943Y-63749816D01*
X190332518Y-97536725D02*
X190332518Y-63749816D01*
X190332518Y-97536725D02*
X166546124Y-97536725D01*
X166546124Y-97536725D02*
X166546124Y-63750894D01*
X166546124Y-63750894D02*
X190331943Y-63749816D01*
X99060000Y-47625000D02*
X99060000Y-57785000D01*
X106680000Y-47625000D02*
X99060000Y-47625000D01*
X106680000Y-57785000D02*
X106680000Y-47625000D01*
X99060000Y-57785000D02*
X106680000Y-57785000D01*
X100330000Y-57785000D02*
X100330000Y-47625000D01*
X140970000Y-33655000D02*
X130810000Y-33655000D01*
X140970000Y-41275000D02*
X140970000Y-33655000D01*
X130810000Y-41275000D02*
X140970000Y-41275000D01*
X130810000Y-33655000D02*
X130810000Y-41275000D01*
X130810000Y-34925000D02*
X140970000Y-34925000D01*
X141939479Y-44180226D02*
X141939479Y-35180225D01*
X142299479Y-44180226D02*
X141939479Y-44180226D01*
X142299479Y-53180225D02*
X142299479Y-44180226D01*
X141939479Y-53180225D02*
X142299479Y-53180225D01*
X141939479Y-62180225D02*
X141939479Y-53180225D01*
X166719479Y-62180225D02*
X141939479Y-62180225D01*
X166719479Y-35180225D02*
X166719479Y-62180225D01*
X141939479Y-35180225D02*
X166719479Y-35180225D01*
X166202518Y-63749816D02*
X166201943Y-63749816D01*
X166202518Y-97536725D02*
X166202518Y-63749816D01*
X166202518Y-97536725D02*
X142416124Y-97536725D01*
X142416124Y-97536725D02*
X142416124Y-63750894D01*
X142416124Y-63750894D02*
X166201943Y-63749816D01*
X136992518Y-63749816D02*
X136991943Y-63749816D01*
X136992518Y-97536725D02*
X136992518Y-63749816D01*
X136992518Y-97536725D02*
X113206124Y-97536725D01*
X113206124Y-97536725D02*
X113206124Y-63750894D01*
X113206124Y-63750894D02*
X136991943Y-63749816D01*
X112862518Y-63749816D02*
X112861943Y-63749816D01*
X112862518Y-97536725D02*
X112862518Y-63749816D01*
X112862518Y-97536725D02*
X89076124Y-97536725D01*
X89076124Y-97536725D02*
X89076124Y-63750894D01*
X89076124Y-63750894D02*
X112861943Y-63749816D01*
X175025000Y-58245000D02*
X175025000Y-56745000D01*
X173775000Y-54245000D02*
X169275000Y-54245000D01*
X168025000Y-56745000D02*
X168025000Y-58245000D01*
X169275000Y-60745000D02*
X173775000Y-60745000D01*
X175025000Y-47450000D02*
X175025000Y-45950000D01*
X173775000Y-43450000D02*
X169275000Y-43450000D01*
X168025000Y-45950000D02*
X168025000Y-47450000D01*
X169275000Y-49950000D02*
X173775000Y-49950000D01*
X106430000Y-48530000D02*
X106430000Y-50540000D01*
X141020000Y-41930000D02*
X106820000Y-41930000D01*
X141020000Y-62130000D02*
X141020000Y-41930000D01*
X106820000Y-62130000D02*
X141020000Y-62130000D01*
X106820000Y-41930000D02*
X106820000Y-62130000D01*
X118615000Y-98930000D02*
X118615000Y-116970000D01*
X162055000Y-98930000D02*
X118615000Y-98930000D01*
X162055000Y-116970000D02*
X162055000Y-98930000D01*
X159385000Y-114300000D02*
X159385000Y-116970000D01*
X123825000Y-114300000D02*
X159385000Y-114300000D01*
X123825000Y-114300000D02*
X123825000Y-116970000D01*
X159385000Y-101600000D02*
X159385000Y-98930000D01*
X121285000Y-101600000D02*
X159385000Y-101600000D01*
X121285000Y-101600000D02*
X121285000Y-98930000D01*
X118615000Y-116970000D02*
X121285000Y-116970000D01*
X123825000Y-116970000D02*
X162055000Y-116970000D01*
X121285000Y-114300000D02*
X121285000Y-116970000D01*
X123825000Y-114300000D02*
X121285000Y-114300000D01*
D11*
X113352380Y-112742857D02*
X112876190Y-113076190D01*
X113352380Y-113314285D02*
X112352380Y-113314285D01*
X112352380Y-112933333D01*
X112400000Y-112838095D01*
X112447619Y-112790476D01*
X112542857Y-112742857D01*
X112685714Y-112742857D01*
X112780952Y-112790476D01*
X112828571Y-112838095D01*
X112876190Y-112933333D01*
X112876190Y-113314285D01*
X113352380Y-111790476D02*
X113352380Y-112361904D01*
X113352380Y-112076190D02*
X112352380Y-112076190D01*
X112495238Y-112171428D01*
X112590476Y-112266666D01*
X112638095Y-112361904D01*
X113352380Y-110838095D02*
X113352380Y-111409523D01*
X113352380Y-111123809D02*
X112352380Y-111123809D01*
X112495238Y-111219047D01*
X112590476Y-111314285D01*
X112638095Y-111409523D01*
X117552380Y-112742857D02*
X117076190Y-113076190D01*
X117552380Y-113314285D02*
X116552380Y-113314285D01*
X116552380Y-112933333D01*
X116600000Y-112838095D01*
X116647619Y-112790476D01*
X116742857Y-112742857D01*
X116885714Y-112742857D01*
X116980952Y-112790476D01*
X117028571Y-112838095D01*
X117076190Y-112933333D01*
X117076190Y-113314285D01*
X117552380Y-111790476D02*
X117552380Y-112361904D01*
X117552380Y-112076190D02*
X116552380Y-112076190D01*
X116695238Y-112171428D01*
X116790476Y-112266666D01*
X116838095Y-112361904D01*
X116552380Y-111171428D02*
X116552380Y-111076190D01*
X116600000Y-110980952D01*
X116647619Y-110933333D01*
X116742857Y-110885714D01*
X116933333Y-110838095D01*
X117171428Y-110838095D01*
X117361904Y-110885714D01*
X117457142Y-110933333D01*
X117504761Y-110980952D01*
X117552380Y-111076190D01*
X117552380Y-111171428D01*
X117504761Y-111266666D01*
X117457142Y-111314285D01*
X117361904Y-111361904D01*
X117171428Y-111409523D01*
X116933333Y-111409523D01*
X116742857Y-111361904D01*
X116647619Y-111314285D01*
X116600000Y-111266666D01*
X116552380Y-111171428D01*
X149693333Y-31737380D02*
X149360000Y-31261190D01*
X149121904Y-31737380D02*
X149121904Y-30737380D01*
X149502857Y-30737380D01*
X149598095Y-30785000D01*
X149645714Y-30832619D01*
X149693333Y-30927857D01*
X149693333Y-31070714D01*
X149645714Y-31165952D01*
X149598095Y-31213571D01*
X149502857Y-31261190D01*
X149121904Y-31261190D01*
X150264761Y-31165952D02*
X150169523Y-31118333D01*
X150121904Y-31070714D01*
X150074285Y-30975476D01*
X150074285Y-30927857D01*
X150121904Y-30832619D01*
X150169523Y-30785000D01*
X150264761Y-30737380D01*
X150455238Y-30737380D01*
X150550476Y-30785000D01*
X150598095Y-30832619D01*
X150645714Y-30927857D01*
X150645714Y-30975476D01*
X150598095Y-31070714D01*
X150550476Y-31118333D01*
X150455238Y-31165952D01*
X150264761Y-31165952D01*
X150169523Y-31213571D01*
X150121904Y-31261190D01*
X150074285Y-31356428D01*
X150074285Y-31546904D01*
X150121904Y-31642142D01*
X150169523Y-31689761D01*
X150264761Y-31737380D01*
X150455238Y-31737380D01*
X150550476Y-31689761D01*
X150598095Y-31642142D01*
X150645714Y-31546904D01*
X150645714Y-31356428D01*
X150598095Y-31261190D01*
X150550476Y-31213571D01*
X150455238Y-31165952D01*
X149042380Y-89066666D02*
X148566190Y-89400000D01*
X149042380Y-89638095D02*
X148042380Y-89638095D01*
X148042380Y-89257142D01*
X148090000Y-89161904D01*
X148137619Y-89114285D01*
X148232857Y-89066666D01*
X148375714Y-89066666D01*
X148470952Y-89114285D01*
X148518571Y-89161904D01*
X148566190Y-89257142D01*
X148566190Y-89638095D01*
X149042380Y-88590476D02*
X149042380Y-88400000D01*
X148994761Y-88304761D01*
X148947142Y-88257142D01*
X148804285Y-88161904D01*
X148613809Y-88114285D01*
X148232857Y-88114285D01*
X148137619Y-88161904D01*
X148090000Y-88209523D01*
X148042380Y-88304761D01*
X148042380Y-88495238D01*
X148090000Y-88590476D01*
X148137619Y-88638095D01*
X148232857Y-88685714D01*
X148470952Y-88685714D01*
X148566190Y-88638095D01*
X148613809Y-88590476D01*
X148661428Y-88495238D01*
X148661428Y-88304761D01*
X148613809Y-88209523D01*
X148566190Y-88161904D01*
X148470952Y-88114285D01*
X149693333Y-126817380D02*
X149360000Y-126341190D01*
X149121904Y-126817380D02*
X149121904Y-125817380D01*
X149502857Y-125817380D01*
X149598095Y-125865000D01*
X149645714Y-125912619D01*
X149693333Y-126007857D01*
X149693333Y-126150714D01*
X149645714Y-126245952D01*
X149598095Y-126293571D01*
X149502857Y-126341190D01*
X149121904Y-126341190D01*
X150026666Y-125817380D02*
X150693333Y-125817380D01*
X150264761Y-126817380D01*
X149693333Y-123642380D02*
X149360000Y-123166190D01*
X149121904Y-123642380D02*
X149121904Y-122642380D01*
X149502857Y-122642380D01*
X149598095Y-122690000D01*
X149645714Y-122737619D01*
X149693333Y-122832857D01*
X149693333Y-122975714D01*
X149645714Y-123070952D01*
X149598095Y-123118571D01*
X149502857Y-123166190D01*
X149121904Y-123166190D01*
X150550476Y-122642380D02*
X150360000Y-122642380D01*
X150264761Y-122690000D01*
X150217142Y-122737619D01*
X150121904Y-122880476D01*
X150074285Y-123070952D01*
X150074285Y-123451904D01*
X150121904Y-123547142D01*
X150169523Y-123594761D01*
X150264761Y-123642380D01*
X150455238Y-123642380D01*
X150550476Y-123594761D01*
X150598095Y-123547142D01*
X150645714Y-123451904D01*
X150645714Y-123213809D01*
X150598095Y-123118571D01*
X150550476Y-123070952D01*
X150455238Y-123023333D01*
X150264761Y-123023333D01*
X150169523Y-123070952D01*
X150121904Y-123118571D01*
X150074285Y-123213809D01*
X135723333Y-124912380D02*
X135390000Y-124436190D01*
X135151904Y-124912380D02*
X135151904Y-123912380D01*
X135532857Y-123912380D01*
X135628095Y-123960000D01*
X135675714Y-124007619D01*
X135723333Y-124102857D01*
X135723333Y-124245714D01*
X135675714Y-124340952D01*
X135628095Y-124388571D01*
X135532857Y-124436190D01*
X135151904Y-124436190D01*
X136628095Y-123912380D02*
X136151904Y-123912380D01*
X136104285Y-124388571D01*
X136151904Y-124340952D01*
X136247142Y-124293333D01*
X136485238Y-124293333D01*
X136580476Y-124340952D01*
X136628095Y-124388571D01*
X136675714Y-124483809D01*
X136675714Y-124721904D01*
X136628095Y-124817142D01*
X136580476Y-124864761D01*
X136485238Y-124912380D01*
X136247142Y-124912380D01*
X136151904Y-124864761D01*
X136104285Y-124817142D01*
X164282380Y-113831666D02*
X163806190Y-114165000D01*
X164282380Y-114403095D02*
X163282380Y-114403095D01*
X163282380Y-114022142D01*
X163330000Y-113926904D01*
X163377619Y-113879285D01*
X163472857Y-113831666D01*
X163615714Y-113831666D01*
X163710952Y-113879285D01*
X163758571Y-113926904D01*
X163806190Y-114022142D01*
X163806190Y-114403095D01*
X163615714Y-112974523D02*
X164282380Y-112974523D01*
X163234761Y-113212619D02*
X163949047Y-113450714D01*
X163949047Y-112831666D01*
X183983333Y-101417380D02*
X183650000Y-100941190D01*
X183411904Y-101417380D02*
X183411904Y-100417380D01*
X183792857Y-100417380D01*
X183888095Y-100465000D01*
X183935714Y-100512619D01*
X183983333Y-100607857D01*
X183983333Y-100750714D01*
X183935714Y-100845952D01*
X183888095Y-100893571D01*
X183792857Y-100941190D01*
X183411904Y-100941190D01*
X184316666Y-100417380D02*
X184935714Y-100417380D01*
X184602380Y-100798333D01*
X184745238Y-100798333D01*
X184840476Y-100845952D01*
X184888095Y-100893571D01*
X184935714Y-100988809D01*
X184935714Y-101226904D01*
X184888095Y-101322142D01*
X184840476Y-101369761D01*
X184745238Y-101417380D01*
X184459523Y-101417380D01*
X184364285Y-101369761D01*
X184316666Y-101322142D01*
X183983333Y-104592380D02*
X183650000Y-104116190D01*
X183411904Y-104592380D02*
X183411904Y-103592380D01*
X183792857Y-103592380D01*
X183888095Y-103640000D01*
X183935714Y-103687619D01*
X183983333Y-103782857D01*
X183983333Y-103925714D01*
X183935714Y-104020952D01*
X183888095Y-104068571D01*
X183792857Y-104116190D01*
X183411904Y-104116190D01*
X184935714Y-104592380D02*
X184364285Y-104592380D01*
X184650000Y-104592380D02*
X184650000Y-103592380D01*
X184554761Y-103735238D01*
X184459523Y-103830476D01*
X184364285Y-103878095D01*
X167457380Y-113831666D02*
X166981190Y-114165000D01*
X167457380Y-114403095D02*
X166457380Y-114403095D01*
X166457380Y-114022142D01*
X166505000Y-113926904D01*
X166552619Y-113879285D01*
X166647857Y-113831666D01*
X166790714Y-113831666D01*
X166885952Y-113879285D01*
X166933571Y-113926904D01*
X166981190Y-114022142D01*
X166981190Y-114403095D01*
X166552619Y-113450714D02*
X166505000Y-113403095D01*
X166457380Y-113307857D01*
X166457380Y-113069761D01*
X166505000Y-112974523D01*
X166552619Y-112926904D01*
X166647857Y-112879285D01*
X166743095Y-112879285D01*
X166885952Y-112926904D01*
X167457380Y-113498333D01*
X167457380Y-112879285D01*
X168783095Y-65492380D02*
X168783095Y-66301904D01*
X168830714Y-66397142D01*
X168878333Y-66444761D01*
X168973571Y-66492380D01*
X169164047Y-66492380D01*
X169259285Y-66444761D01*
X169306904Y-66397142D01*
X169354523Y-66301904D01*
X169354523Y-65492380D01*
X170259285Y-65825714D02*
X170259285Y-66492380D01*
X170021190Y-65444761D02*
X169783095Y-66159047D01*
X170402142Y-66159047D01*
X144653095Y-65492380D02*
X144653095Y-66301904D01*
X144700714Y-66397142D01*
X144748333Y-66444761D01*
X144843571Y-66492380D01*
X145034047Y-66492380D01*
X145129285Y-66444761D01*
X145176904Y-66397142D01*
X145224523Y-66301904D01*
X145224523Y-65492380D01*
X145605476Y-65492380D02*
X146224523Y-65492380D01*
X145891190Y-65873333D01*
X146034047Y-65873333D01*
X146129285Y-65920952D01*
X146176904Y-65968571D01*
X146224523Y-66063809D01*
X146224523Y-66301904D01*
X146176904Y-66397142D01*
X146129285Y-66444761D01*
X146034047Y-66492380D01*
X145748333Y-66492380D01*
X145653095Y-66444761D01*
X145605476Y-66397142D01*
X115443095Y-65492380D02*
X115443095Y-66301904D01*
X115490714Y-66397142D01*
X115538333Y-66444761D01*
X115633571Y-66492380D01*
X115824047Y-66492380D01*
X115919285Y-66444761D01*
X115966904Y-66397142D01*
X116014523Y-66301904D01*
X116014523Y-65492380D01*
X116443095Y-65587619D02*
X116490714Y-65540000D01*
X116585952Y-65492380D01*
X116824047Y-65492380D01*
X116919285Y-65540000D01*
X116966904Y-65587619D01*
X117014523Y-65682857D01*
X117014523Y-65778095D01*
X116966904Y-65920952D01*
X116395476Y-66492380D01*
X117014523Y-66492380D01*
X91948095Y-64857380D02*
X91948095Y-65666904D01*
X91995714Y-65762142D01*
X92043333Y-65809761D01*
X92138571Y-65857380D01*
X92329047Y-65857380D01*
X92424285Y-65809761D01*
X92471904Y-65762142D01*
X92519523Y-65666904D01*
X92519523Y-64857380D01*
X93519523Y-65857380D02*
X92948095Y-65857380D01*
X93233809Y-65857380D02*
X93233809Y-64857380D01*
X93138571Y-65000238D01*
X93043333Y-65095476D01*
X92948095Y-65143095D01*
M02*
